<svg width="24" height="24" viewBox="0 0 24 24" fill="none" xmlns="http://www.w3.org/2000/svg">
<path d="M20.9 9.85012L21.49 19.7401C21.51 20.0101 21.38 20.1901 21.31 20.2701C21.23 20.3601 21.06 20.5001 20.78 20.5001H18.05L20.21 9.85012H20.9ZM22 6.00012L21.99 6.02012C22.01 6.26012 21.99 6.51012 21.93 6.76012L14.56 20.2901C14.443 20.7794 14.1639 21.2147 13.7681 21.5252C13.3723 21.8357 12.8831 22.0031 12.38 22.0001H20.78C21.0851 22.001 21.3871 21.9387 21.6669 21.8172C21.9468 21.6957 22.1984 21.5175 22.406 21.2939C22.6136 21.0703 22.7727 20.8062 22.8732 20.5181C22.9737 20.2301 23.0135 19.9243 22.99 19.6201L22 6.00012ZM11.45 2.24112C11.55 1.84112 11.3 1.43112 10.9 1.33112C10.5 1.24112 10.09 1.48112 9.99 1.88112L9.49 3.95112H11.03L11.45 2.24112ZM18.05 2.20912C18.14 1.79912 17.88 1.40912 17.47 1.31912C17.3735 1.2986 17.2738 1.29734 17.1768 1.31541C17.0798 1.33347 16.9873 1.3705 16.9046 1.42439C16.8219 1.47827 16.7507 1.54794 16.695 1.6294C16.6393 1.71086 16.6002 1.80252 16.58 1.89912L16.13 3.96912H17.67L18.05 2.20912Z" fill="#17345F"/>
<path d="M21.82 5.33092C21.49 4.53092 20.71 3.96092 19.75 3.96092H17.67L17.11 6.55092C17.03 6.90092 16.72 7.14092 16.38 7.14092C16.33 7.14092 16.27 7.14092 16.22 7.12092C16.0269 7.07656 15.8585 6.95901 15.7503 6.79301C15.6421 6.627 15.6026 6.4255 15.64 6.23092L16.13 3.95092H11.03L10.4 6.55092C10.32 6.89092 10.01 7.12092 9.67 7.12092C9.61 7.12092 9.55 7.11092 9.49 7.10092C9.39401 7.0775 9.30359 7.03535 9.22394 6.97688C9.14429 6.91842 9.07698 6.84479 9.02587 6.76023C8.97476 6.67567 8.94086 6.58184 8.92613 6.48414C8.91139 6.38644 8.9161 6.28679 8.94 6.19092L9.48 3.94092H7.45C6.47 3.94092 5.6 4.58092 5.31 5.52092L1.1 19.0709C0.659999 20.5209 1.73 22.0009 3.24 22.0009H16.38C17.42 22.0009 18.32 21.3009 18.56 20.2909L21.93 6.76092C21.99 6.51092 22.01 6.26092 21.99 6.02092C21.975 5.78261 21.9174 5.54893 21.82 5.33092ZM14.7 16.7509H6.7C6.29 16.7509 5.95 16.4109 5.95 16.0009C5.95 15.5909 6.29 15.2509 6.7 15.2509H14.7C15.11 15.2509 15.45 15.5909 15.45 16.0009C15.45 16.4109 15.11 16.7509 14.7 16.7509ZM15.7 12.7509H7.7C7.29 12.7509 6.95 12.4109 6.95 12.0009C6.95 11.5909 7.29 11.2509 7.7 11.2509H15.7C16.11 11.2509 16.45 11.5909 16.45 12.0009C16.45 12.4109 16.11 12.7509 15.7 12.7509Z" fill="#17345F"/>
</svg>
