<svg width="89" height="82" viewBox="0 0 89 82" fill="none" xmlns="http://www.w3.org/2000/svg">
<path d="M13.3872 75.3822C30.5701 83.664 58.4299 83.664 75.6128 75.3822C92.7957 67.1005 92.7957 53.6711 75.6128 45.3874C58.4299 37.1036 30.5701 37.1056 13.3872 45.3874C-3.79573 53.6691 -3.79573 67.0985 13.3872 75.3822Z" fill="#F0F0F0"/>
<path d="M47.5024 70.3247C50.3211 70.3247 52.6061 69.2232 52.6061 67.8645C52.6061 66.5058 50.3211 65.4043 47.5024 65.4043C44.6837 65.4043 42.3986 66.5058 42.3986 67.8645C42.3986 69.2232 44.6837 70.3247 47.5024 70.3247Z" fill="#E0E0E0"/>
<path d="M23.3141 46.2643L14.1031 40.8853L4.89006 46.2643L14.1031 51.6433L23.3141 46.2643Z" fill="#F0F0F0"/>
<path d="M14.1032 58.8165L23.3143 53.4375V46.2642L14.1032 51.6432V58.8165Z" fill="#EBEBEB"/>
<path d="M15.4796 57.1529C15.4614 57.1533 15.4434 57.1484 15.4279 57.1388C15.4092 57.1265 15.3942 57.1094 15.3844 57.0892C15.3746 57.069 15.3704 57.0465 15.3722 57.0241V56.8934C15.3722 56.8806 15.3772 56.8683 15.3862 56.8592C15.3951 56.8502 15.4073 56.8451 15.4199 56.8451C15.4261 56.8451 15.4322 56.8463 15.4379 56.8488C15.4436 56.8512 15.4487 56.8548 15.453 56.8593C15.4573 56.8638 15.4606 56.8692 15.4628 56.875C15.4649 56.8809 15.4659 56.8871 15.4657 56.8934V57.0241C15.4657 57.0442 15.4657 57.0543 15.4657 57.0563C15.4657 57.0583 15.4796 57.0563 15.4975 57.0563C15.5262 57.0283 15.5489 56.9945 15.564 56.957C15.579 56.9196 15.5862 56.8794 15.585 56.839V55.9902C15.585 55.9779 15.5898 55.9661 15.5984 55.9574C15.607 55.9488 15.6186 55.9439 15.6308 55.9439C15.6369 55.9436 15.6431 55.9446 15.6489 55.9468C15.6547 55.949 15.6599 55.9524 15.6644 55.9567C15.6689 55.961 15.6724 55.9662 15.6748 55.972C15.6772 55.9777 15.6785 55.9839 15.6785 55.9902V56.823C15.6806 56.8799 15.6697 56.9366 15.6465 56.9886C15.6234 57.0406 15.5888 57.0865 15.5452 57.1227C15.5258 57.1376 15.5034 57.1479 15.4796 57.1529Z" fill="#E0E0E0"/>
<path d="M14.9784 56.4194V56.3369C14.9888 56.1253 15.0482 55.9191 15.1518 55.7349C15.2555 55.5508 15.4005 55.3938 15.5751 55.2768C15.6377 55.2212 15.7159 55.1869 15.7988 55.1787C15.8816 55.1705 15.965 55.1887 16.037 55.2309C16.1091 55.2732 16.1662 55.3372 16.2004 55.414C16.2346 55.4908 16.244 55.5765 16.2275 55.659V55.6852L14.9784 56.4194ZM15.8655 55.2869C15.7821 55.2899 15.701 55.3156 15.6308 55.3613C15.4805 55.4602 15.3533 55.5909 15.2578 55.7444C15.1623 55.8979 15.1009 56.0706 15.0779 56.2504L16.14 55.6308C16.1436 55.5705 16.132 55.5102 16.1063 55.4557C16.0805 55.4011 16.0415 55.3541 15.9928 55.319C15.9551 55.2932 15.911 55.2785 15.8655 55.2768V55.2869Z" fill="#E0E0E0"/>
<path d="M17.1723 56.1735C17.1601 56.1735 17.1485 56.1686 17.1399 56.16C17.1313 56.1513 17.1265 56.1395 17.1265 56.1273V54.7553C17.1251 54.7483 17.1252 54.7411 17.1269 54.7341C17.1286 54.7271 17.1318 54.7206 17.1362 54.7151C17.1407 54.7095 17.1464 54.705 17.1528 54.7019C17.1592 54.6989 17.1662 54.6973 17.1733 54.6973C17.1804 54.6973 17.1874 54.6989 17.1938 54.7019C17.2002 54.705 17.2058 54.7095 17.2103 54.7151C17.2148 54.7206 17.218 54.7271 17.2196 54.7341C17.2213 54.7411 17.2214 54.7483 17.22 54.7553V56.1273C17.22 56.1335 17.2188 56.1397 17.2163 56.1454C17.2139 56.1512 17.2104 56.1564 17.2059 56.1607C17.2014 56.165 17.1962 56.1684 17.1904 56.1706C17.1846 56.1728 17.1784 56.1738 17.1723 56.1735Z" fill="#E0E0E0"/>
<path d="M17.035 55.1253C17.0285 55.127 17.0217 55.127 17.0152 55.1253C17.0095 55.1229 17.0043 55.1194 17 55.1149C16.9957 55.1104 16.9923 55.1051 16.9901 55.0993C16.9878 55.0935 16.9868 55.0873 16.987 55.081C16.9872 55.0748 16.9887 55.0686 16.9913 55.063L17.1604 54.6606L17.3473 54.8799C17.3557 54.8889 17.3604 54.9008 17.3604 54.9131C17.3604 54.9254 17.3557 54.9373 17.3473 54.9463C17.3429 54.9508 17.3376 54.9544 17.3318 54.9568C17.326 54.9592 17.3198 54.9605 17.3135 54.9605C17.3072 54.9605 17.301 54.9592 17.2952 54.9568C17.2894 54.9544 17.2841 54.9508 17.2797 54.9463L17.1902 54.8417L17.0828 55.0951C17.079 55.1046 17.0724 55.1127 17.0638 55.1181C17.0552 55.1235 17.0451 55.1261 17.035 55.1253Z" fill="#E0E0E0"/>
<path d="M17.6098 55.9215C17.5972 55.9215 17.585 55.9164 17.5761 55.9074C17.5671 55.8983 17.5621 55.8861 17.5621 55.8733V54.5034C17.5621 54.4906 17.5671 54.4783 17.5761 54.4692C17.585 54.4602 17.5972 54.4551 17.6098 54.4551C17.6225 54.4551 17.6346 54.4602 17.6436 54.4692C17.6525 54.4783 17.6576 54.4906 17.6576 54.5034V55.8733C17.6576 55.8861 17.6525 55.8983 17.6436 55.9074C17.6346 55.9164 17.6225 55.9215 17.6098 55.9215Z" fill="#E0E0E0"/>
<path d="M17.4686 54.8729H17.4487C17.443 54.8705 17.4378 54.8669 17.4335 54.8625C17.4292 54.858 17.4258 54.8527 17.4236 54.8469C17.4214 54.841 17.4203 54.8348 17.4205 54.8286C17.4208 54.8223 17.4222 54.8162 17.4248 54.8105L17.5919 54.4082L17.7908 54.6255C17.7993 54.6348 17.8041 54.647 17.8041 54.6597C17.8041 54.6723 17.7993 54.6846 17.7908 54.6939C17.7817 54.7019 17.7701 54.7064 17.758 54.7064C17.7459 54.7064 17.7343 54.7019 17.7252 54.6939L17.6357 54.5892L17.5263 54.8427C17.5247 54.8487 17.5219 54.8543 17.5181 54.8591C17.5143 54.8639 17.5095 54.8679 17.5041 54.8708C17.4986 54.8736 17.4927 54.8753 17.4866 54.8756C17.4804 54.876 17.4743 54.8751 17.4686 54.8729Z" fill="#E0E0E0"/>
<path d="M14.1031 58.8165L4.89006 53.4375V46.2642L14.1031 51.6432V58.8165Z" fill="#E0E0E0"/>
<path d="M9.14867 55.9238L9.84283 56.3302V49.1568L9.14867 48.7505V55.9238Z" fill="#EBEBEB"/>
<path d="M19.3703 49.9129L18.0476 50.6834C17.9154 50.7599 17.8024 50.866 17.7172 50.9937C17.6321 51.1213 17.577 51.267 17.5563 51.4196C17.5563 51.667 17.7771 51.7395 18.0476 51.5805L19.3703 50.8101C19.502 50.7334 19.6147 50.6271 19.6995 50.4995C19.7843 50.3718 19.8391 50.2262 19.8596 50.0739C19.8556 49.8264 19.6408 49.754 19.3703 49.9129Z" fill="#E0E0E0"/>
<path d="M9.84283 49.156L19.0558 43.7769L18.3617 43.3706L9.14867 48.7496L9.84283 49.156Z" fill="#FAFAFA"/>
<path d="M18.3617 49.156L9.14867 43.7769L9.84283 43.3706L19.0558 48.7496L18.3617 49.156Z" fill="#FAFAFA"/>
<g style="mix-blend-mode:multiply" opacity="0.8">
<path d="M5.29198 46.0289L14.1251 51.1806L22.9284 46.041L14.1032 40.8853L5.29198 46.0289Z" fill="#E0E0E0"/>
</g>
<path d="M18.3616 49.877V49.1568L19.0558 48.7505V49.4706L18.3616 49.877Z" fill="#F0F0F0"/>
<path d="M22.9006 38.1954L13.6875 32.8164L4.47453 38.1954L13.6875 43.5744L22.9006 38.1954Z" fill="#F0F0F0"/>
<g style="mix-blend-mode:multiply" opacity="0.8">
<path d="M5.25819 38.2784L14.0078 43.3878L22.9006 38.1959L14.151 33.0864L5.25819 38.2784Z" fill="#E0E0E0"/>
</g>
<path d="M13.6877 50.7477L22.9007 45.3666V38.1953L13.6877 43.5743V50.7477Z" fill="#EBEBEB"/>
<path d="M15.062 49.0843C15.0439 49.0837 15.0262 49.0788 15.0102 49.0702C14.9916 49.0579 14.9766 49.0408 14.9668 49.0206C14.957 49.0004 14.9528 48.9779 14.9546 48.9555V48.8248C14.9531 48.8177 14.9532 48.8105 14.9549 48.8035C14.9566 48.7965 14.9598 48.79 14.9643 48.7845C14.9687 48.7789 14.9744 48.7744 14.9808 48.7714C14.9872 48.7683 14.9942 48.7667 15.0013 48.7667C15.0084 48.7667 15.0154 48.7683 15.0218 48.7714C15.0282 48.7744 15.0338 48.7789 15.0383 48.7845C15.0428 48.79 15.046 48.7965 15.0477 48.8035C15.0493 48.8105 15.0495 48.8177 15.048 48.8248V48.9555C15.048 48.9756 15.048 48.9857 15.048 48.9877C15.048 48.9897 15.062 48.9877 15.0779 48.9776C15.107 48.9503 15.1299 48.9169 15.145 48.8797C15.1601 48.8426 15.1671 48.8025 15.1654 48.7624V47.9135C15.1654 47.9007 15.1704 47.8884 15.1794 47.8794C15.1883 47.8703 15.2005 47.8652 15.2131 47.8652C15.2258 47.8652 15.2379 47.8703 15.2469 47.8794C15.2558 47.8884 15.2609 47.9007 15.2609 47.9135V48.7624C15.2634 48.8193 15.2524 48.876 15.2289 48.9278C15.2053 48.9796 15.1699 49.025 15.1256 49.0601C15.1068 49.0735 15.0849 49.0818 15.062 49.0843Z" fill="#E0E0E0"/>
<path d="M14.5647 48.3406V48.2582C14.5753 48.0469 14.6349 47.8411 14.7385 47.6573C14.8421 47.4735 14.987 47.3169 15.1614 47.2001C15.2239 47.1456 15.3017 47.1121 15.3839 47.1043C15.466 47.0965 15.5486 47.1148 15.6201 47.1565C15.6915 47.1983 15.7484 47.2615 15.7827 47.3375C15.8171 47.4134 15.8272 47.4982 15.8118 47.5802V47.6084L14.5647 48.3406ZM15.4518 47.2081C15.3679 47.2124 15.2865 47.238 15.2151 47.2825C15.0653 47.3823 14.9385 47.5135 14.8434 47.6673C14.7484 47.8211 14.6872 47.9938 14.6641 48.1737L15.7262 47.5541C15.7301 47.4937 15.7186 47.4334 15.6928 47.3788C15.667 47.3242 15.6279 47.2772 15.579 47.2423C15.5404 47.2195 15.4965 47.2077 15.4518 47.2081Z" fill="#E0E0E0"/>
<path d="M16.7585 48.1042C16.7459 48.1042 16.7337 48.0991 16.7248 48.09C16.7158 48.081 16.7108 48.0687 16.7108 48.0559V46.686C16.7108 46.6732 16.7158 46.6609 16.7248 46.6518C16.7337 46.6428 16.7459 46.6377 16.7585 46.6377C16.7712 46.6377 16.7833 46.6428 16.7923 46.6518C16.8013 46.6609 16.8063 46.6732 16.8063 46.686V48.0559C16.8063 48.0687 16.8013 48.081 16.7923 48.09C16.7833 48.0991 16.7712 48.1042 16.7585 48.1042Z" fill="#E0E0E0"/>
<path d="M16.6214 47.0562H16.6015C16.5958 47.0538 16.5907 47.0502 16.5863 47.0458C16.582 47.0413 16.5786 47.036 16.5764 47.0302C16.5742 47.0243 16.5731 47.0181 16.5734 47.0119C16.5736 47.0056 16.575 46.9995 16.5777 46.9938L16.7447 46.6016L16.9436 46.8188C16.9522 46.8281 16.9569 46.8403 16.9569 46.853C16.9569 46.8657 16.9522 46.8779 16.9436 46.8872C16.9346 46.8953 16.9229 46.8997 16.9108 46.8997C16.8987 46.8997 16.8871 46.8953 16.878 46.8872L16.7885 46.7826L16.6791 47.0361C16.6736 47.046 16.6647 47.0536 16.6541 47.0573C16.6434 47.061 16.6318 47.0606 16.6214 47.0562Z" fill="#E0E0E0"/>
<path d="M17.1961 47.8532C17.1834 47.8532 17.1713 47.8481 17.1623 47.8391C17.1534 47.83 17.1483 47.8178 17.1483 47.805V46.433C17.1483 46.4202 17.1534 46.408 17.1623 46.3989C17.1713 46.3899 17.1834 46.3848 17.1961 46.3848C17.2087 46.3848 17.2209 46.3899 17.2298 46.3989C17.2388 46.408 17.2438 46.4202 17.2438 46.433V47.805C17.2438 47.8178 17.2388 47.83 17.2298 47.8391C17.2209 47.8481 17.2087 47.8532 17.1961 47.8532Z" fill="#E0E0E0"/>
<path d="M17.057 46.8053H17.0391C17.0275 46.8 17.0183 46.7903 17.0134 46.7783C17.0086 46.7663 17.0086 46.7529 17.0133 46.7409L17.1823 46.3486L17.3693 46.5679C17.3737 46.5724 17.3773 46.5777 17.3797 46.5836C17.3821 46.5894 17.3833 46.5957 17.3833 46.6021C17.3833 46.6084 17.3821 46.6147 17.3797 46.6206C17.3773 46.6265 17.3737 46.6318 17.3693 46.6363C17.3601 46.6449 17.348 46.6497 17.3355 46.6497C17.3229 46.6497 17.3109 46.6449 17.3017 46.6363L17.2142 46.5317L17.1048 46.7852C17.0994 46.7926 17.0921 46.7984 17.0837 46.802C17.0753 46.8055 17.066 46.8067 17.057 46.8053Z" fill="#E0E0E0"/>
<path d="M13.6875 50.7477L4.47453 45.3666V38.1953L13.6875 43.5743V50.7477Z" fill="#E0E0E0"/>
<path d="M8.73491 47.855L9.42907 48.2593V41.088L8.73491 40.6816V47.855Z" fill="#EBEBEB"/>
<path d="M18.9544 41.8451L17.6337 42.6155C17.5016 42.692 17.3885 42.7982 17.3034 42.9258C17.2182 43.0535 17.1631 43.1992 17.1424 43.3517C17.1424 43.5992 17.3632 43.6716 17.6337 43.5127L18.9544 42.7402C19.0872 42.665 19.2008 42.5595 19.2861 42.432C19.3714 42.3045 19.426 42.1586 19.4457 42.006C19.4457 41.7586 19.2269 41.6861 18.9544 41.8451Z" fill="#E0E0E0"/>
<path d="M9.42907 41.0881L18.6421 35.7091L17.9479 35.3027L8.73491 40.6817L9.42907 41.0881Z" fill="#FAFAFA"/>
<path d="M17.9479 41.0881L8.73491 35.7091L9.42907 35.3027L18.6421 40.6817L17.9479 41.0881Z" fill="#FAFAFA"/>
<path d="M17.9478 41.8081V41.088L18.642 40.6816V41.4018L17.9478 41.8081Z" fill="#F0F0F0"/>
<g style="mix-blend-mode:multiply" opacity="0.8">
<path d="M14.0075 43.3872L14.8369 43.872L22.9003 39.1629V38.1953L14.0075 43.3872Z" fill="#E0E0E0"/>
</g>
<path d="M23.8234 31.0221L14.6124 25.6431L5.3994 31.0221L14.6124 36.4011L23.8234 31.0221Z" fill="#F0F0F0"/>
<path d="M14.6126 43.5743L23.8236 38.1953V31.022L14.6126 36.401V43.5743Z" fill="#EBEBEB"/>
<path d="M15.9848 41.9112C15.9672 41.9118 15.9498 41.9068 15.9351 41.8971C15.9159 41.8852 15.9004 41.8682 15.8902 41.848C15.88 41.8278 15.8756 41.8051 15.8774 41.7824V41.6517C15.8774 41.6389 15.8825 41.6266 15.8914 41.6175C15.9004 41.6085 15.9125 41.6034 15.9252 41.6034C15.9378 41.6034 15.95 41.6085 15.9589 41.6175C15.9679 41.6266 15.9729 41.6389 15.9729 41.6517V41.7824C15.9729 41.8025 15.9729 41.8126 15.9729 41.8146C15.9729 41.8166 15.9868 41.8146 16.0047 41.8146C16.0338 41.7873 16.0567 41.7539 16.0719 41.7167C16.087 41.6795 16.0939 41.6395 16.0922 41.5994V40.7505C16.0908 40.7434 16.0909 40.7362 16.0926 40.7292C16.0943 40.7222 16.0975 40.7157 16.102 40.7102C16.1064 40.7046 16.1121 40.7001 16.1185 40.6971C16.1249 40.694 16.1319 40.6924 16.139 40.6924C16.1461 40.6924 16.1531 40.694 16.1595 40.6971C16.1659 40.7001 16.1715 40.7046 16.176 40.7102C16.1805 40.7157 16.1837 40.7222 16.1853 40.7292C16.187 40.7362 16.1872 40.7434 16.1857 40.7505V41.5994C16.1878 41.656 16.1769 41.7124 16.1538 41.7641C16.1306 41.8158 16.0959 41.8613 16.0525 41.8971C16.0312 41.9066 16.0081 41.9114 15.9848 41.9112Z" fill="#E0E0E0"/>
<path d="M15.4797 41.1684V41.0859C15.4905 40.8744 15.5501 40.6684 15.6537 40.4843C15.7573 40.3002 15.9021 40.1432 16.0764 40.0258C16.1389 39.9703 16.2172 39.9359 16.3 39.9277C16.3829 39.9195 16.4662 39.9378 16.5383 39.98C16.6103 40.0222 16.6675 40.0862 16.7017 40.163C16.7358 40.2398 16.7453 40.3255 16.7288 40.408V40.4342L15.4797 41.1684ZM16.3668 40.0359C16.2834 40.039 16.2023 40.0647 16.1321 40.1103C15.9821 40.2095 15.855 40.3403 15.7596 40.4938C15.6641 40.6472 15.6026 40.8197 15.5791 40.9994L16.6413 40.3799C16.6448 40.3198 16.6333 40.2597 16.6079 40.2053C16.5826 40.1508 16.5441 40.1036 16.4961 40.0681C16.4589 40.0473 16.4172 40.0362 16.3747 40.0359H16.3668Z" fill="#E0E0E0"/>
<path d="M17.6813 40.931C17.6751 40.931 17.669 40.9298 17.6633 40.9273C17.6576 40.9249 17.6525 40.9213 17.6482 40.9168C17.6439 40.9123 17.6406 40.9069 17.6384 40.9011C17.6362 40.8952 17.6352 40.889 17.6355 40.8828V39.5229C17.6341 39.5159 17.6342 39.5086 17.6359 39.5017C17.6376 39.4947 17.6408 39.4882 17.6452 39.4826C17.6497 39.4771 17.6553 39.4726 17.6618 39.4695C17.6682 39.4664 17.6752 39.4648 17.6822 39.4648C17.6893 39.4648 17.6963 39.4664 17.7027 39.4695C17.7092 39.4726 17.7148 39.4771 17.7193 39.4826C17.7237 39.4882 17.7269 39.4947 17.7286 39.5017C17.7303 39.5086 17.7304 39.5159 17.729 39.5229V40.8948C17.7263 40.9055 17.7201 40.9148 17.7114 40.9214C17.7027 40.928 17.6921 40.9314 17.6813 40.931Z" fill="#E0E0E0"/>
<path d="M17.5441 39.8826C17.5383 39.8845 17.532 39.8845 17.5262 39.8826C17.5203 39.8804 17.5149 39.877 17.5104 39.8727C17.5059 39.8683 17.5023 39.863 17.4999 39.8571C17.4974 39.8513 17.4962 39.845 17.4963 39.8387C17.4964 39.8323 17.4978 39.8261 17.5003 39.8203L17.6694 39.418L17.8564 39.6372C17.8608 39.6415 17.8642 39.6467 17.8666 39.6524C17.869 39.6581 17.8702 39.6642 17.8702 39.6704C17.8702 39.6766 17.869 39.6827 17.8666 39.6884C17.8642 39.6941 17.8608 39.6993 17.8564 39.7036C17.8519 39.7081 17.8467 39.7117 17.8409 39.7141C17.8351 39.7166 17.8288 39.7178 17.8226 39.7178C17.8163 39.7178 17.81 39.7166 17.8042 39.7141C17.7984 39.7117 17.7932 39.7081 17.7887 39.7036L17.6992 39.599L17.5918 39.8525C17.5881 39.862 17.5814 39.87 17.5728 39.8754C17.5642 39.8809 17.5542 39.8834 17.5441 39.8826Z" fill="#E0E0E0"/>
<path d="M18.1188 40.6798C18.1126 40.6801 18.1065 40.6791 18.1007 40.6769C18.0949 40.6747 18.0896 40.6713 18.0852 40.667C18.0807 40.6627 18.0772 40.6575 18.0747 40.6517C18.0723 40.646 18.0711 40.6398 18.0711 40.6336V39.2617C18.0711 39.2489 18.0761 39.2366 18.0851 39.2275C18.094 39.2185 18.1062 39.2134 18.1188 39.2134C18.1315 39.2134 18.1436 39.2185 18.1526 39.2275C18.1615 39.2366 18.1666 39.2489 18.1666 39.2617V40.6336C18.1666 40.6398 18.1653 40.646 18.1629 40.6517C18.1605 40.6575 18.1569 40.6627 18.1525 40.667C18.148 40.6713 18.1427 40.6747 18.1369 40.6769C18.1312 40.6791 18.125 40.6801 18.1188 40.6798Z" fill="#E0E0E0"/>
<path d="M17.9817 39.6322H17.9618C17.9561 39.6298 17.9509 39.6262 17.9466 39.6217C17.9423 39.6173 17.9389 39.612 17.9367 39.6061C17.9345 39.6003 17.9334 39.5941 17.9336 39.5878C17.9338 39.5816 17.9353 39.5755 17.9379 39.5698L18.105 39.1675L18.3039 39.3847C18.3124 39.394 18.3172 39.4062 18.3172 39.4189C18.3172 39.4316 18.3124 39.4438 18.3039 39.4531C18.2996 39.4576 18.2945 39.4611 18.2889 39.4635C18.2833 39.4659 18.2772 39.4672 18.2711 39.4672C18.265 39.4672 18.2589 39.4659 18.2533 39.4635C18.2476 39.4611 18.2425 39.4576 18.2383 39.4531L18.1488 39.3485L18.0394 39.602C18.0378 39.608 18.035 39.6136 18.0312 39.6184C18.0274 39.6232 18.0226 39.6272 18.0172 39.63C18.0117 39.6329 18.0058 39.6345 17.9996 39.6349C17.9935 39.6353 17.9874 39.6343 17.9817 39.6322Z" fill="#E0E0E0"/>
<path d="M14.6124 43.5743L5.3994 38.1953V31.022L14.6124 36.401V43.5743Z" fill="#E0E0E0"/>
<path d="M9.6579 40.6812L10.3521 41.0875V33.9142L9.6579 33.5078V40.6812Z" fill="#EBEBEB"/>
<path d="M19.8793 34.6707L18.5566 35.4432C18.4243 35.5188 18.3112 35.6244 18.2263 35.7519C18.1413 35.8793 18.0869 36.025 18.0673 36.1774C18.0673 36.4249 18.2861 36.4973 18.5566 36.3384L19.8793 35.5679C20.0115 35.4914 20.1245 35.3853 20.2097 35.2576C20.2948 35.13 20.3499 34.9842 20.3706 34.8317C20.3706 34.5842 20.1498 34.5118 19.8793 34.6707Z" fill="#E0E0E0"/>
<path d="M10.3521 33.9152L19.5651 28.5362L18.8709 28.1299L9.6579 33.5089L10.3521 33.9152Z" fill="#FAFAFA"/>
<path d="M18.8709 33.9152L9.6579 28.5362L10.3521 28.1299L19.5651 33.5089L18.8709 33.9152Z" fill="#FAFAFA"/>
<path d="M18.8706 34.6343V33.9142L19.5647 33.5078V34.228L18.8706 34.6343Z" fill="#F0F0F0"/>
<path d="M27.5567 57.4465V54.3003C27.4086 53.1438 26.924 52.0578 26.1644 51.1803C24.9352 49.8346 23.8333 50.2912 23.4753 50.9309C23.1173 51.5706 23.9327 52.7816 24.4539 53.4655C25.0804 54.2862 27.5527 58.0922 27.5527 59.8081L27.5567 57.4465Z" fill="#37474F"/>
<path d="M27.5569 56.9489C27.5389 56.9488 27.5214 56.9422 27.5077 56.9305C27.4939 56.9187 27.4845 56.9025 27.4813 56.8846C26.9204 53.4548 24.3387 51.1012 24.3128 51.0771C24.299 51.0625 24.2912 51.043 24.2912 51.0228C24.2912 51.0025 24.299 50.9831 24.3128 50.9685C24.3199 50.9613 24.3282 50.9556 24.3375 50.9517C24.3467 50.9478 24.3566 50.9458 24.3665 50.9458C24.3765 50.9458 24.3864 50.9478 24.3956 50.9517C24.4049 50.9556 24.4132 50.9613 24.4202 50.9685C24.4481 50.9906 27.0676 53.3824 27.6384 56.8644C27.6413 56.8847 27.6363 56.9052 27.6244 56.9218C27.6125 56.9383 27.5947 56.9495 27.5748 56.9529L27.5569 56.9489Z" fill="#FAFAFA"/>
<path d="M27.5567 57.4465C27.5567 57.4465 27.68 57.0683 27.1291 56.9718C26.5781 56.8752 26.3673 56.4126 26.3176 55.6361C26.2678 54.8596 26.0331 54.3024 25.3429 54.1877C24.6528 54.0731 24.0978 54.4251 23.6503 54.0751C23.2028 53.7251 22.0432 52.8822 21.0766 53.2705C20.1099 53.6587 20.4281 54.4895 20.9314 55.0286C21.4346 55.5677 21.5778 55.7528 21.1939 56.6379C20.81 57.523 21.0885 58.3397 21.9776 58.5449C22.8666 58.75 23.3699 58.6454 23.3699 59.6291C23.3699 60.6128 23.517 61.0533 24.0044 61.4395C24.4917 61.8258 26.0212 61.6528 26.6577 61.8016C26.8488 61.8514 27.0272 61.9418 27.1812 62.0666C27.3352 62.1915 27.4611 62.348 27.5507 62.5258L27.5567 57.4465Z" fill="#455A64"/>
<path d="M27.5568 61.5044C27.541 61.5044 27.5255 61.4994 27.5127 61.49C27.4998 61.4806 27.4902 61.4674 27.4852 61.4521C25.8682 56.6002 22.2104 54.6389 22.1726 54.6127C22.1558 54.6024 22.1436 54.5859 22.1383 54.5668C22.133 54.5476 22.1351 54.5271 22.1442 54.5094C22.1533 54.4918 22.1687 54.4783 22.1873 54.4717C22.2059 54.4651 22.2262 54.4659 22.2442 54.4739C22.28 54.494 25.9915 56.4855 27.6284 61.3958C27.6318 61.4053 27.6333 61.4154 27.6327 61.4255C27.6321 61.4356 27.6295 61.4454 27.6251 61.4545C27.6206 61.4635 27.6144 61.4715 27.6067 61.478C27.5991 61.4846 27.5903 61.4894 27.5807 61.4924C27.574 61.4985 27.5657 61.5027 27.5568 61.5044Z" fill="#FAFAFA"/>
<path d="M25.2375 57.274H25.2255C24.1694 57.0306 22.4807 57.1634 22.4628 57.1634C22.4529 57.1642 22.4429 57.163 22.4334 57.1599C22.4239 57.1568 22.4151 57.1519 22.4076 57.1453C22.4 57.1388 22.3938 57.1308 22.3892 57.1218C22.3847 57.1128 22.382 57.103 22.3813 57.093C22.3802 57.0829 22.3811 57.0726 22.3841 57.0629C22.387 57.0532 22.3919 57.0442 22.3985 57.0365C22.405 57.0288 22.413 57.0225 22.422 57.018C22.431 57.0135 22.4409 57.011 22.4509 57.0105C22.5225 57.0105 24.1813 56.8757 25.2593 57.1251C25.2775 57.1294 25.2934 57.1403 25.304 57.1557C25.3147 57.1711 25.3194 57.19 25.3172 57.2087C25.315 57.2274 25.306 57.2446 25.292 57.257C25.2781 57.2694 25.26 57.2762 25.2414 57.276L25.2375 57.274Z" fill="#FAFAFA"/>
<path d="M26.0989 59.6074C25.6155 59.6074 25.1044 59.5752 25.0726 59.5732C25.0523 59.5716 25.0335 59.5621 25.0201 59.5467C25.0067 59.5313 24.9999 59.5112 25.0009 59.4907C25.0014 59.4805 25.004 59.4704 25.0084 59.4612C25.0128 59.452 25.019 59.4438 25.0266 59.437C25.0342 59.4303 25.043 59.4251 25.0527 59.4219C25.0623 59.4187 25.0724 59.4174 25.0825 59.4183C25.6321 59.4574 26.1838 59.4574 26.7334 59.4183C26.7531 59.4154 26.7732 59.4205 26.7893 59.4326C26.8053 59.4447 26.8159 59.4627 26.8189 59.4826C26.8206 59.4927 26.8203 59.503 26.818 59.5129C26.8157 59.5228 26.8114 59.5322 26.8055 59.5405C26.7996 59.5487 26.7921 59.5557 26.7834 59.5609C26.7748 59.5662 26.7652 59.5697 26.7552 59.5711C26.5376 59.5987 26.3182 59.6108 26.0989 59.6074Z" fill="#FAFAFA"/>
<path d="M24.7422 56.7041C24.722 56.7025 24.7031 56.693 24.6898 56.6776C24.6764 56.6622 24.6695 56.6421 24.6706 56.6216C24.707 56.0662 24.8215 55.5189 25.0107 54.9962C25.0182 54.9777 25.0327 54.9628 25.0509 54.9549C25.0691 54.947 25.0897 54.9467 25.1082 54.954C25.1176 54.9573 25.1263 54.9626 25.1336 54.9694C25.141 54.9762 25.1469 54.9845 25.151 54.9937C25.1551 55.003 25.1573 55.0129 25.1575 55.023C25.1576 55.0332 25.1557 55.0432 25.1519 55.0525C24.9708 55.5611 24.8597 56.0925 24.8218 56.6316C24.8213 56.6417 24.8188 56.6515 24.8145 56.6606C24.8102 56.6697 24.8042 56.6778 24.7968 56.6846C24.7894 56.6913 24.7808 56.6965 24.7714 56.6998C24.7621 56.7032 24.7521 56.7046 24.7422 56.7041Z" fill="#FAFAFA"/>
<path d="M27.5329 26.3189V62.8575C27.5329 63.1915 27.7636 63.3262 28.05 63.1593L71.4538 37.8132C71.6036 37.7136 71.7281 37.5798 71.8173 37.4225C71.9064 37.2653 71.9577 37.089 71.967 36.908V0.373371C71.967 0.039446 71.7362 -0.0953309 71.4518 0.0716315L28.048 25.4177C27.8984 25.5167 27.7738 25.6498 27.6843 25.8063C27.5949 25.9628 27.543 26.1384 27.5329 26.3189Z" fill="#839FFF"/>
<path d="M71.4538 0.0716315L28.05 25.4177C27.8995 25.5168 27.7742 25.6505 27.6843 25.8077C27.5945 25.965 27.5426 26.1416 27.5329 26.3229V28.6081L71.967 2.60021V0.373371C71.967 0.039446 71.7382 -0.0953309 71.4538 0.0716315Z" fill="#263238"/>
<path d="M65.9106 4.129C65.7625 4.22654 65.6394 4.35812 65.5512 4.513C65.4631 4.66788 65.4124 4.84167 65.4034 5.02014C65.4034 5.34803 65.6301 5.4808 65.9125 5.31786C66.0606 5.21964 66.1838 5.08766 66.2722 4.93254C66.3606 4.77742 66.4118 4.60349 66.4217 4.42471C66.4197 4.09682 66.199 3.96405 65.9106 4.129Z" fill="white"/>
<path d="M67.9295 2.94814C67.7815 3.04592 67.6584 3.17752 67.5699 3.33232C67.4815 3.48711 67.4302 3.66077 67.4204 3.83927C67.4204 4.16917 67.6491 4.30194 67.9295 4.13699C68.078 4.03968 68.2015 3.90819 68.29 3.7533C68.3785 3.5984 68.4295 3.42451 68.4387 3.24585C68.4387 2.91193 68.212 2.7852 67.9295 2.94814Z" fill="white"/>
<path d="M69.9502 1.77007C69.8022 1.86785 69.679 1.99945 69.5905 2.15425C69.5021 2.30904 69.4509 2.4827 69.441 2.6612C69.441 2.98909 69.6697 3.12387 69.9502 2.95892C70.0982 2.86114 70.2213 2.72954 70.3098 2.57474C70.3982 2.41994 70.4495 2.24629 70.4593 2.06778C70.4593 1.73788 70.2306 1.60512 69.9502 1.77007Z" fill="white"/>
<path d="M41.4055 25.3617V36.2243L32.107 41.6556V30.793L41.4055 25.3617ZM41.6044 25.0137L31.9081 30.6763V41.9996L41.6044 36.3369V25.0137Z" fill="#FAFAFA"/>
<path d="M44.8053 34.6195V23.0649L54.6986 17.2876V28.8422L44.8053 34.6195ZM45.0042 23.1816V34.2715L54.4997 28.7255V17.6356L45.0042 23.1816Z" fill="#FAFAFA"/>
<path d="M51.0028 22.9899L51.5239 21.8514C50.9473 21.769 50.3602 21.8898 49.8611 22.1933V23.2293C50.2059 23.0263 50.6067 22.9423 51.0028 22.9899Z" fill="#839FFF"/>
<path d="M51.8781 23.76L52.7214 22.9553C52.6403 22.7127 52.5055 22.4921 52.3273 22.3101C52.1491 22.1281 51.9322 21.9897 51.6931 21.9053L51.174 23.0438C51.3355 23.1047 51.4821 23.2002 51.6037 23.3238C51.7252 23.4475 51.8188 23.5962 51.8781 23.76Z" fill="#839FFF"/>
<path d="M48.497 28.916L47.9779 30.0526C48.5535 30.1387 49.1408 30.0192 49.6387 29.7146V28.6807C49.2943 28.8845 48.8928 28.9673 48.497 28.916Z" fill="#839FFF"/>
<path d="M51.182 27.1979L51.7011 27.729C52.1627 27.0403 52.51 26.28 52.7294 25.478L51.8781 25.643C51.7277 26.1949 51.4928 26.7195 51.182 27.1979Z" fill="#839FFF"/>
<path d="M49.8611 28.5519V29.5859C50.5103 29.1605 51.0739 28.6144 51.522 27.9766L51.0028 27.4536C50.6903 27.8859 50.3036 28.2579 49.8611 28.5519Z" fill="#839FFF"/>
<path d="M52.7971 23.1548L51.9557 23.9594C52.0114 24.172 52.0389 24.3912 52.0373 24.6112C52.0352 24.8628 52.0079 25.1135 51.9557 25.3595L52.7971 25.1885C52.8765 24.8299 52.9178 24.4637 52.9204 24.0962C52.9231 23.7781 52.8815 23.4612 52.7971 23.1548Z" fill="#839FFF"/>
<g opacity="0.2">
<path d="M51.0029 22.9899L51.524 21.8514C50.9473 21.769 50.3602 21.8898 49.8612 22.1933V23.2293C50.206 23.0263 50.6067 22.9423 51.0029 22.9899Z" fill="black"/>
<path d="M51.8781 23.76L52.7214 22.9553C52.6403 22.7127 52.5055 22.4921 52.3273 22.3101C52.1491 22.1281 51.9322 21.9897 51.6931 21.9053L51.174 23.0438C51.3355 23.1047 51.4821 23.2002 51.6037 23.3238C51.7252 23.4475 51.8189 23.5962 51.8781 23.76Z" fill="black"/>
<path d="M48.497 28.916L47.9779 30.0526C48.5535 30.1387 49.1408 30.0192 49.6387 29.7146V28.6807C49.2943 28.8845 48.8929 28.9673 48.497 28.916Z" fill="black"/>
<path d="M51.182 27.1979L51.7011 27.729C52.1627 27.0403 52.5101 26.28 52.7294 25.478L51.8781 25.643C51.7277 26.1949 51.4928 26.7195 51.182 27.1979Z" fill="black"/>
<path d="M49.8612 28.5519V29.5859C50.5104 29.1605 51.0739 28.6144 51.522 27.9766L51.0029 27.4536C50.6904 27.8859 50.3037 28.2579 49.8612 28.5519Z" fill="black"/>
<path d="M52.797 23.1548L51.9557 23.9594C52.0113 24.172 52.0388 24.3912 52.0372 24.6112C52.0351 24.8628 52.0078 25.1135 51.9557 25.3595L52.797 25.1885C52.8764 24.8299 52.9177 24.4637 52.9203 24.0962C52.923 23.7781 52.8815 23.4612 52.797 23.1548Z" fill="black"/>
</g>
<path d="M49.6406 23.3533V22.3193C48.991 22.7442 48.4273 23.2904 47.9798 23.9286L48.4989 24.4597C48.8101 24.024 49.197 23.6491 49.6406 23.3533Z" fill="#FAFAFA"/>
<path d="M48.3218 24.7083L47.8027 24.1772C47.3402 24.8647 46.9928 25.6246 46.7744 26.4262L47.6157 26.2552C47.7694 25.7053 48.0076 25.1833 48.3218 24.7083Z" fill="#FAFAFA"/>
<path d="M47.4646 27.2864C47.4675 27.0348 47.4955 26.784 47.5482 26.5381L46.7068 26.7111C46.6276 27.0691 46.5862 27.4345 46.5835 27.8014C46.5804 28.1221 46.6219 28.4418 46.7068 28.7508L47.5482 27.9462C47.4912 27.731 47.4631 27.5091 47.4646 27.2864Z" fill="#FAFAFA"/>
<path d="M47.6157 28.145L46.7744 28.9497C46.8553 29.1922 46.99 29.4127 47.1683 29.5944C47.3465 29.7761 47.5636 29.914 47.8027 29.9977L48.3218 28.8611C48.1599 28.8005 48.013 28.7051 47.891 28.5815C47.7691 28.4578 47.6752 28.3089 47.6157 28.145Z" fill="#FAFAFA"/>
<path d="M47.8604 27.0514C47.8604 25.8304 48.7078 24.3478 49.752 23.7383C50.7962 23.1288 51.6435 23.6217 51.6435 24.8427C51.6435 26.0637 50.7962 27.5463 49.752 28.1558C48.7078 28.7653 47.8604 28.2765 47.8604 27.0514Z" fill="#839FFF"/>
<path opacity="0.2" d="M47.8604 27.0514C47.8604 25.8304 48.7078 24.3478 49.752 23.7383C50.7962 23.1288 51.6435 23.6217 51.6435 24.8427C51.6435 26.0637 50.7962 27.5463 49.752 28.1558C48.7078 28.7653 47.8604 28.2765 47.8604 27.0514Z" fill="black"/>
<path d="M49.5649 25.3234C49.5688 25.4018 49.5688 25.4803 49.5649 25.5587C49.5612 25.6234 49.5505 25.6875 49.533 25.7498C49.5161 25.815 49.49 25.8773 49.4555 25.9349C49.3816 26.0639 49.2752 26.1708 49.1472 26.2447C49.092 26.2799 49.0305 26.3039 48.9662 26.3151C48.9227 26.3238 48.8776 26.3167 48.8389 26.295C48.8039 26.2724 48.7768 26.2393 48.7613 26.2004C48.7422 26.1516 48.7315 26.0999 48.7295 26.0475C48.7295 26.0073 48.7295 25.9691 48.7295 25.9329C48.7295 25.8967 48.7295 25.8564 48.7295 25.8102C48.7327 25.7421 48.7434 25.6747 48.7613 25.609C48.7796 25.545 48.8056 25.4835 48.8389 25.426C48.874 25.3637 48.9168 25.3063 48.9662 25.255C49.0201 25.2007 49.081 25.154 49.1472 25.1162C49.2026 25.081 49.2639 25.0564 49.3282 25.0438C49.3718 25.0366 49.4166 25.0444 49.4555 25.0659C49.4904 25.0884 49.5175 25.1215 49.533 25.1604C49.5521 25.2127 49.5629 25.2677 49.5649 25.3234ZM50.2292 24.569C50.2393 24.5455 50.2519 24.5232 50.267 24.5026C50.2826 24.4826 50.3022 24.4661 50.3246 24.4544L50.5434 24.3276C50.5496 24.3221 50.557 24.3183 50.565 24.3165C50.573 24.3148 50.5813 24.3151 50.5892 24.3176C50.6011 24.3176 50.6071 24.3337 50.6071 24.3518C50.6078 24.3571 50.6078 24.3625 50.6071 24.3679C50.6079 24.3759 50.6079 24.384 50.6071 24.392L49.2924 27.1781C49.2811 27.2007 49.2678 27.2223 49.2526 27.2424C49.2373 27.2626 49.2184 27.2797 49.1969 27.2927L48.9781 27.4194C48.9709 27.4229 48.9631 27.4246 48.9552 27.4246C48.9473 27.4246 48.9395 27.4229 48.9324 27.4194C48.9204 27.4194 48.9145 27.4034 48.9145 27.3852C48.9145 27.3671 48.9145 27.3752 48.9145 27.3671C48.9145 27.3591 48.9145 27.3531 48.9145 27.345L50.2292 24.569ZM49.0358 25.8504C49.0351 25.8879 49.0447 25.9248 49.0636 25.957C49.0775 25.9751 49.1054 25.9711 49.1452 25.957C49.1803 25.9377 49.2083 25.9074 49.2247 25.8705C49.2424 25.8263 49.2525 25.7794 49.2546 25.7317C49.2584 25.6647 49.2584 25.5976 49.2546 25.5306C49.255 25.4935 49.2446 25.4571 49.2247 25.426C49.2108 25.4078 49.183 25.4099 49.1452 25.426C49.109 25.4445 49.0802 25.475 49.0636 25.5125C49.0467 25.5568 49.0373 25.6037 49.0358 25.6513C49.0311 25.7156 49.0317 25.7802 49.0378 25.8444L49.0358 25.8504ZM50.796 25.6895C50.8 25.7685 50.8 25.8478 50.796 25.9268C50.7919 25.9907 50.7819 26.054 50.7662 26.1159C50.731 26.2492 50.6625 26.3712 50.5673 26.47C50.514 26.5255 50.453 26.5729 50.3863 26.6108C50.3311 26.646 50.2696 26.67 50.2053 26.6812C50.1619 26.6909 50.1164 26.6837 50.078 26.6611C50.043 26.6385 50.0159 26.6055 50.0004 26.5665C49.9814 26.5177 49.9706 26.4661 49.9686 26.4136C49.9686 26.3734 49.9686 26.3352 49.9686 26.301C49.9686 26.2668 49.9686 26.2225 49.9686 26.1763C49.9724 26.1123 49.9831 26.0489 50.0004 25.9872C50.0187 25.9225 50.0448 25.8604 50.078 25.8021C50.1127 25.7402 50.1555 25.6834 50.2053 25.6331C50.2586 25.5777 50.3196 25.5302 50.3863 25.4923C50.4415 25.4571 50.503 25.4332 50.5673 25.4219C50.6107 25.4122 50.6562 25.4194 50.6946 25.442C50.7296 25.4646 50.7567 25.4977 50.7722 25.5366C50.7892 25.5857 50.7979 25.6374 50.798 25.6895H50.796ZM50.269 26.2185C50.2691 26.2552 50.2787 26.2913 50.2968 26.3231C50.3127 26.3412 50.3386 26.3392 50.3783 26.3231C50.4141 26.304 50.4427 26.2736 50.4599 26.2366C50.4759 26.192 50.4853 26.1452 50.4877 26.0978C50.4916 26.0308 50.4916 25.9637 50.4877 25.8967C50.4876 25.8599 50.478 25.8239 50.4599 25.7921C50.444 25.774 50.4181 25.776 50.3783 25.7921C50.3426 25.8112 50.314 25.8416 50.2968 25.8786C50.2808 25.9232 50.2714 25.97 50.269 26.0174C50.2639 26.0843 50.2645 26.1517 50.2709 26.2185H50.269Z" fill="#FAFAFA"/>
<path d="M57.7317 27.0712V15.5146L67.6249 9.7373V21.2939L57.7317 27.0712ZM57.9306 15.6313V26.7212L67.426 21.1772V10.0873L57.9306 15.6313Z" fill="#FAFAFA"/>
<path d="M62.569 15.8047V14.7808C61.9186 15.2054 61.3543 15.7516 60.9062 16.39L61.4273 16.9231C61.7371 16.4829 62.1241 16.1039 62.569 15.8047Z" fill="#FAFAFA"/>
<path d="M61.2483 17.1595L60.7292 16.6284C60.2663 17.3157 59.9189 18.0756 59.7009 18.8774L60.5422 18.7044C60.6971 18.1556 60.9353 17.6344 61.2483 17.1595Z" fill="#FAFAFA"/>
<path d="M63.9294 15.4421L64.4505 14.3016C63.8739 14.2192 63.2868 14.34 62.7877 14.6435V15.6755C63.1325 15.4728 63.5338 15.3907 63.9294 15.4421Z" fill="#839FFF"/>
<path d="M64.8066 16.2106L65.6479 15.406C65.5668 15.1636 65.4319 14.9432 65.2537 14.7615C65.0755 14.5799 64.8586 14.4418 64.6196 14.3579L64.1005 15.4945C64.2624 15.5551 64.4093 15.6505 64.5312 15.7741C64.6532 15.8978 64.7471 16.0467 64.8066 16.2106Z" fill="#839FFF"/>
<path d="M61.4253 21.3666L60.9062 22.5052C61.3835 22.6038 61.9544 22.5052 62.569 22.1653V21.1333C62.2236 21.3365 61.8215 21.4185 61.4253 21.3666Z" fill="#839FFF"/>
<path d="M65.7234 15.6055L64.8821 16.4101C64.9385 16.6233 64.9666 16.8432 64.9656 17.0639C64.9627 17.3155 64.9347 17.5662 64.8821 17.8122L65.7234 17.6412C65.8027 17.2826 65.844 16.9164 65.8468 16.5489C65.8493 16.2302 65.8078 15.9126 65.7234 15.6055Z" fill="#839FFF"/>
<path d="M64.1084 19.6486L64.6276 20.1796C65.09 19.4921 65.4375 18.7323 65.6559 17.9307L64.8145 18.1037C64.6596 18.6525 64.4214 19.1737 64.1084 19.6486Z" fill="#839FFF"/>
<path d="M60.3911 19.739C60.3939 19.4874 60.4219 19.2367 60.4746 18.9907L59.6333 19.1617C59.554 19.5204 59.5127 19.8865 59.51 20.254C59.5068 20.5741 59.5483 20.8931 59.6333 21.2015L60.4746 20.3968C60.418 20.1823 60.3899 19.9611 60.3911 19.739Z" fill="#839FFF"/>
<path d="M60.5422 20.5957L59.7009 21.4003C59.782 21.6427 59.9168 21.8631 60.0951 22.0448C60.2733 22.2264 60.4902 22.3644 60.7292 22.4484L61.2483 21.3118C61.0864 21.2512 60.9394 21.1558 60.8175 21.0322C60.6956 20.9085 60.6017 20.7596 60.5422 20.5957Z" fill="#839FFF"/>
<path d="M62.7877 21.0037V22.0356C63.4372 21.6139 64.0015 21.0712 64.4505 20.4364L63.9314 19.9033C63.6188 20.3367 63.2314 20.7095 62.7877 21.0037Z" fill="#839FFF"/>
<g opacity="0.2">
<path d="M63.9294 15.4421L64.4505 14.3016C63.8739 14.2192 63.2868 14.34 62.7877 14.6435V15.6755C63.1325 15.4728 63.5338 15.3907 63.9294 15.4421Z" fill="black"/>
<path d="M64.8065 16.2106L65.6479 15.406C65.5667 15.1636 65.4319 14.9432 65.2537 14.7615C65.0755 14.5799 64.8586 14.4418 64.6195 14.3579L64.1004 15.4945C64.2623 15.5551 64.4093 15.6505 64.5312 15.7741C64.6531 15.8978 64.747 16.0467 64.8065 16.2106Z" fill="black"/>
<path d="M61.4253 21.3662L60.9061 22.5047C61.3835 22.6033 61.9543 22.5047 62.5689 22.1648V21.1328C62.2236 21.336 61.8215 21.418 61.4253 21.3662Z" fill="black"/>
<path d="M65.7234 15.6055L64.8821 16.4101C64.9385 16.6233 64.9666 16.8432 64.9656 17.0639C64.9627 17.3155 64.9347 17.5662 64.8821 17.8122L65.7234 17.6412C65.8027 17.2826 65.844 16.9164 65.8467 16.5489C65.8493 16.2302 65.8078 15.9126 65.7234 15.6055Z" fill="black"/>
<path d="M64.1084 19.6486L64.6275 20.1796C65.09 19.4921 65.4374 18.7323 65.6558 17.9307L64.8145 18.1037C64.6596 18.6525 64.4214 19.1737 64.1084 19.6486Z" fill="black"/>
<path d="M60.3911 19.739C60.3939 19.4874 60.4219 19.2367 60.4746 18.9907L59.6333 19.1617C59.554 19.5204 59.5127 19.8865 59.51 20.254C59.5068 20.5741 59.5483 20.8931 59.6333 21.2015L60.4746 20.3968C60.418 20.1823 60.39 19.9611 60.3911 19.739Z" fill="black"/>
<path d="M60.5422 20.5957L59.7008 21.4003C59.782 21.6427 59.9168 21.8631 60.095 22.0448C60.2732 22.2264 60.4901 22.3644 60.7291 22.4484L61.2483 21.3118C61.0864 21.2512 60.9394 21.1558 60.8175 21.0322C60.6956 20.9085 60.6017 20.7596 60.5422 20.5957Z" fill="black"/>
<path d="M62.7877 21.0037V22.0356C63.4372 21.6139 64.0014 21.0712 64.4505 20.4364L63.9314 19.9033C63.6188 20.3367 63.2313 20.7095 62.7877 21.0037Z" fill="black"/>
</g>
<path d="M60.7869 19.5075C60.7869 18.2885 61.6342 16.8059 62.6784 16.1944C63.7227 15.5829 64.57 16.0798 64.57 17.2988C64.57 18.5178 63.7227 20.0104 62.6784 20.6139C61.6342 21.2174 60.7869 20.7286 60.7869 19.5075Z" fill="#839FFF"/>
<path opacity="0.2" d="M60.7869 19.5075C60.7869 18.2885 61.6342 16.8059 62.6784 16.1944C63.7227 15.5829 64.57 16.0798 64.57 17.2988C64.57 18.5178 63.7227 20.0104 62.6784 20.6139C61.6342 21.2174 60.7869 20.7286 60.7869 19.5075Z" fill="black"/>
<path d="M62.4914 17.7759C62.4954 17.8543 62.4954 17.9328 62.4914 18.0112C62.4873 18.0757 62.4774 18.1397 62.4616 18.2023C62.4429 18.2662 62.4169 18.3276 62.384 18.3854C62.348 18.4475 62.3046 18.5049 62.2548 18.5564C62.2008 18.6106 62.14 18.6573 62.0738 18.6952C62.0182 18.73 61.9569 18.7546 61.8928 18.7676C61.8493 18.7753 61.8045 18.7683 61.7655 18.7475C61.7305 18.7249 61.7034 18.6918 61.6879 18.6529C61.6689 18.6034 61.6581 18.5511 61.6561 18.498C61.6541 18.4605 61.6541 18.4229 61.6561 18.3854C61.6561 18.3492 61.6561 18.3089 61.6561 18.2627C61.6599 18.198 61.6705 18.1339 61.6879 18.0716C61.7065 18.007 61.7326 17.9449 61.7655 17.8865C61.8001 17.8246 61.8429 17.7677 61.8928 17.7175C61.9467 17.6633 62.0075 17.6166 62.0738 17.5787C62.1293 17.5438 62.1906 17.5193 62.2548 17.5063C62.2982 17.4985 62.343 17.5056 62.382 17.5264C62.417 17.549 62.4441 17.582 62.4596 17.621C62.4786 17.6705 62.4894 17.7228 62.4914 17.7759ZM63.1558 17.0215C63.1666 16.9984 63.1792 16.9762 63.1936 16.9551C63.2096 16.9355 63.2292 16.9191 63.2512 16.9068L63.47 16.7781C63.4834 16.7688 63.4998 16.7652 63.5158 16.768C63.5277 16.768 63.5337 16.7841 63.5337 16.8043C63.5337 16.8244 63.5337 16.8043 63.5337 16.8203C63.5345 16.8284 63.5345 16.8365 63.5337 16.8445L62.2209 19.6285C62.2101 19.6516 62.1975 19.6738 62.1831 19.6949C62.1675 19.715 62.1479 19.7314 62.1255 19.7432L61.9067 19.8719C61.9001 19.8766 61.8927 19.88 61.8848 19.8817C61.877 19.8834 61.8688 19.8835 61.8609 19.882C61.849 19.882 61.843 19.8659 61.843 19.8458C61.8423 19.8404 61.8423 19.835 61.843 19.8297C61.8422 19.8217 61.8422 19.8136 61.843 19.8056L63.1558 17.0215ZM61.9624 18.3029C61.962 18.3397 61.9716 18.3759 61.9902 18.4075C62.0061 18.4256 62.032 18.4236 62.0718 18.4075C62.1073 18.3872 62.1358 18.3563 62.1533 18.319C62.1693 18.2751 62.1787 18.2289 62.1812 18.1822C62.185 18.1152 62.185 18.048 62.1812 17.981C62.1815 17.9443 62.1719 17.9081 62.1533 17.8764C62.1374 17.8583 62.1115 17.8603 62.0718 17.8764C62.0362 17.8968 62.0078 17.9277 61.9902 17.9649C61.9742 18.0089 61.9648 18.055 61.9624 18.1017C61.9592 18.1688 61.9599 18.2359 61.9644 18.3029H61.9624ZM63.7226 18.142C63.7286 18.2203 63.7286 18.299 63.7226 18.3773C63.7193 18.4452 63.7093 18.5126 63.6928 18.5785C63.6738 18.6429 63.6477 18.7049 63.6152 18.7636C63.5797 18.8254 63.5363 18.8823 63.4859 18.9325C63.4316 18.9868 63.3708 19.0341 63.3049 19.0733C63.2495 19.108 63.1881 19.1319 63.1239 19.1437C63.0805 19.1525 63.0354 19.1454 62.9966 19.1236C62.9617 19.1011 62.9345 19.068 62.9191 19.0291C62.9012 18.98 62.8905 18.9285 62.8872 18.8762C62.8872 18.836 62.8872 18.7977 62.8872 18.7615C62.8872 18.7253 62.8872 18.6851 62.8872 18.6388C62.892 18.5743 62.9027 18.5103 62.9191 18.4477C62.9377 18.3832 62.9638 18.3211 62.9966 18.2627C63.0323 18.2014 63.075 18.1447 63.1239 18.0937C63.1783 18.0399 63.2391 17.9933 63.3049 17.9549C63.3605 17.92 63.4218 17.8955 63.4859 17.8825C63.5294 17.8747 63.5742 17.8818 63.6132 17.9026C63.6482 17.9252 63.6753 17.9582 63.6908 17.9971C63.7093 18.0434 63.7207 18.0922 63.7246 18.142H63.7226ZM63.1955 18.669C63.1952 18.7058 63.2048 18.742 63.2234 18.7736C63.2393 18.7917 63.2671 18.7897 63.3049 18.7736C63.3413 18.7543 63.37 18.7231 63.3865 18.6851C63.4036 18.6415 63.413 18.5952 63.4143 18.5483C63.4201 18.4814 63.4201 18.4141 63.4143 18.3471C63.4155 18.3103 63.4058 18.2739 63.3865 18.2425C63.3706 18.2244 63.3447 18.2265 63.3049 18.2425C63.2694 18.2629 63.2409 18.2938 63.2234 18.3311C63.2076 18.375 63.1982 18.4211 63.1955 18.4678C63.1924 18.5349 63.193 18.602 63.1975 18.669H63.1955Z" fill="#FAFAFA"/>
<path d="M31.9762 44.8281V56.1514L41.6726 50.4887V39.1675L31.9762 44.8281Z" fill="#839FFF"/>
<path opacity="0.7" d="M31.9762 44.8281V56.1514L41.6726 50.4887V39.1675L31.9762 44.8281Z" fill="#FAFAFA"/>
<path d="M31.9762 47.8212C32.3044 47.95 32.7281 47.8977 33.1895 47.6201C34.2337 47.0166 35.081 45.526 35.081 44.307C35.1063 43.9105 34.9754 43.52 34.7171 43.2207L31.9762 44.8199V47.8212Z" fill="#839FFF"/>
<path d="M36.2467 48.1C36.3422 47.7821 36.5311 47.768 36.6684 48.0718L38.0368 51.0892L40.0755 43.2822C40.161 42.9603 40.3023 42.9583 40.3898 43.2822L41.6727 47.8908V50.4897L34.2199 54.8428L36.2467 48.1Z" fill="#839FFF"/>
<g opacity="0.2">
<path d="M31.9762 47.8212C32.3044 47.95 32.728 47.8977 33.1895 47.6201C34.2337 47.0166 35.081 45.526 35.081 44.307C35.1062 43.9105 34.9754 43.52 34.717 43.2207L31.9762 44.8199V47.8212Z" fill="black"/>
<path d="M36.2467 48.1C36.3421 47.7821 36.5311 47.768 36.6683 48.0718L38.0367 51.0892L40.0755 43.2822C40.161 42.9603 40.3022 42.9583 40.3897 43.2822L41.6726 47.8908V50.4897L34.2199 54.8428L36.2467 48.1Z" fill="black"/>
</g>
<path d="M41.4737 39.5235V50.3861L32.1751 55.8175V44.9548L41.4737 39.5235ZM41.6726 39.1755L31.9762 44.8362V56.1594L41.6726 50.4968V39.1675V39.1755Z" fill="#839FFF"/>
<path opacity="0.7" d="M41.4737 39.5235V50.3861L32.1751 55.8175V44.9548L41.4737 39.5235ZM41.6726 39.1755L31.9762 44.8362V56.1594L41.6726 50.4968V39.1675V39.1755Z" fill="#FAFAFA"/>
<path d="M44.9049 37.2798V48.601L54.5992 42.9404V31.6191L44.9049 37.2798Z" fill="#839FFF"/>
<path opacity="0.7" d="M44.9049 37.2798V48.601L54.5992 42.9404V31.6191L44.9049 37.2798Z" fill="#FAFAFA"/>
<path d="M44.9049 40.2734C45.2331 40.4021 45.6547 40.3478 46.1162 40.0722C47.1604 39.4687 48.0077 37.9781 48.0077 36.7571C48.0326 36.3613 47.9018 35.9715 47.6437 35.6729L44.9049 37.2721V40.2734Z" fill="#839FFF"/>
<path d="M49.1731 40.5536C49.2705 40.2338 49.4595 40.2217 49.5967 40.5235L50.9631 43.5408L53.0039 35.7338C53.0874 35.412 53.2286 35.41 53.3181 35.7338L54.599 40.3404V42.9434L47.1463 47.2945L49.1731 40.5536Z" fill="#839FFF"/>
<g opacity="0.2">
<path d="M44.9049 40.2729C45.2331 40.4016 45.6548 40.3473 46.1162 40.0717C47.1605 39.4682 48.0078 37.9777 48.0078 36.7566C48.0327 36.3608 47.9018 35.971 47.6438 35.6724L44.9049 37.2716V40.2729Z" fill="black"/>
<path d="M49.1731 40.5536C49.2706 40.2338 49.4595 40.2217 49.5968 40.5235L50.9632 43.5408L53.0039 35.7338C53.0874 35.412 53.2286 35.41 53.3182 35.7338L54.5991 40.3404V42.9434L47.1463 47.2945L49.1731 40.5536Z" fill="black"/>
</g>
<path d="M54.4003 31.9677V42.8303L45.1038 48.2616V37.399L54.4003 31.9677ZM54.5992 31.6177L44.9049 37.2803V48.6016L54.5992 42.943V31.6177Z" fill="#839FFF"/>
<path opacity="0.7" d="M54.4003 31.9677V42.8303L45.1038 48.2616V37.399L54.4003 31.9677ZM54.5992 31.6177L44.9049 37.2803V48.6016L54.5992 42.943V31.6177Z" fill="#FAFAFA"/>
<path d="M57.8311 29.7305V41.0537L67.5255 35.3931V24.0698L57.8311 29.7305Z" fill="#839FFF"/>
<path opacity="0.7" d="M57.8311 29.7305V41.0537L67.5255 35.3931V24.0698L57.8311 29.7305Z" fill="#FAFAFA"/>
<path d="M57.8311 32.725C58.1593 32.8538 58.581 32.7995 59.0424 32.5239C60.0866 31.9204 60.934 30.4318 60.934 29.2108C60.9587 28.8143 60.828 28.424 60.57 28.1245L57.8311 29.7237V32.725Z" fill="#839FFF"/>
<path d="M62.0995 33.0036C62.197 32.6857 62.3859 32.6737 62.5232 32.9754L63.8896 35.9928L65.9303 28.1838C66.0139 27.8619 66.1551 27.8619 66.2446 28.1838L67.5255 32.7923V35.3933L60.0727 39.7444L62.0995 33.0036Z" fill="#839FFF"/>
<g opacity="0.2">
<path d="M57.8311 32.725C58.1593 32.8538 58.5809 32.7995 59.0424 32.5239C60.0866 31.9204 60.9339 30.4318 60.9339 29.2108C60.9587 28.8143 60.8279 28.424 60.5699 28.1245L57.8311 29.7237V32.725Z" fill="black"/>
<path d="M62.0995 33.0036C62.197 32.6857 62.3859 32.6737 62.5232 32.9754L63.8896 35.9928L65.9303 28.1838C66.0139 27.8619 66.1551 27.8619 66.2446 28.1838L67.5255 32.7923V35.3933L60.0727 39.7444L62.0995 33.0036Z" fill="black"/>
</g>
<path d="M67.3266 24.4178V35.2804L58.03 40.7118V29.8491L67.3266 24.4178ZM67.5255 24.0698L57.8311 29.7305V41.0537L67.5255 35.3931V24.0698Z" fill="#839FFF"/>
<path opacity="0.7" d="M67.3266 24.4178V35.2804L58.03 40.7118V29.8491L67.3266 24.4178ZM67.5255 24.0698L57.8311 29.7305V41.0537L67.5255 35.3931V24.0698Z" fill="#FAFAFA"/>
<path d="M66.3143 27.9443L69.1705 28.7148L68.2079 29.2639L69.9542 30.5574L69.7274 30.9114L67.9294 29.6099L67.6907 30.6721L66.3143 27.9443Z" fill="#263238"/>
<path d="M81.1482 20.8299L74.9108 24.4709C74.7602 24.57 74.6349 24.7037 74.5451 24.8609C74.4552 25.0182 74.4033 25.1947 74.3936 25.3761V30.4715L72.8024 32.1331C72.5737 32.3725 72.6532 32.5354 72.9794 32.4952L74.3857 32.3282V34.553C74.3857 34.8849 74.6164 35.0217 74.9028 34.8548L81.1403 31.2118C81.2909 31.1128 81.4163 30.9792 81.5062 30.8219C81.596 30.6646 81.6479 30.488 81.6574 30.3066V21.1317C81.6654 20.7977 81.4347 20.663 81.1482 20.8299Z" fill="#37474F"/>
<path d="M76.4722 26.3942L76.2096 26.3741C75.8635 26.3459 75.4518 26.2071 75.4518 25.7062C75.4618 25.5218 75.5146 25.3423 75.6058 25.1823C75.697 25.0222 75.8241 24.8861 75.9769 24.7849C76.2036 24.6541 76.3966 24.7084 76.4702 24.8975C76.5452 24.6146 76.7208 24.3696 76.9634 24.2096C77.2538 24.0406 77.4885 24.1774 77.4885 24.5173C77.4885 25.0082 77.0788 25.6298 76.7347 26.0643L76.4722 26.3942Z" fill="#FAFAFA"/>
<path d="M78.9502 23.521L80.3425 22.7163C80.6269 22.5494 80.8596 22.6258 80.8596 22.8873C80.8381 23.0477 80.7802 23.2008 80.6905 23.3348C80.6008 23.4688 80.4817 23.58 80.3425 23.6598L78.9502 24.4644C78.6638 24.6314 78.4331 24.5549 78.4331 24.2934C78.4541 24.1329 78.5118 23.9796 78.6016 23.8455C78.6913 23.7115 78.8107 23.6004 78.9502 23.521Z" fill="#FAFAFA"/>
<path d="M75.9669 28.0308L77.3592 27.2262C77.6457 27.0592 77.8764 27.1357 77.8764 27.3952C77.8556 27.556 77.798 27.7098 77.7083 27.8442C77.6185 27.9786 77.499 28.09 77.3592 28.1696L75.9669 28.9743C75.6825 29.1412 75.4518 29.0648 75.4518 28.8053C75.4727 28.6447 75.53 28.4912 75.6194 28.3569C75.7088 28.2225 75.8278 28.1109 75.9669 28.0308Z" fill="#FAFAFA"/>
<path d="M75.9669 29.9986L80.3427 27.4459C80.6272 27.279 80.8599 27.3554 80.8599 27.6149C80.8386 27.7756 80.7809 27.9292 80.6912 28.0635C80.6015 28.1979 80.4822 28.3094 80.3427 28.3894L75.9669 30.9421C75.6825 31.109 75.4518 31.0326 75.4518 30.7731C75.4727 30.6125 75.53 30.459 75.6194 30.3247C75.7088 30.1903 75.8278 30.0787 75.9669 29.9986Z" fill="#FAFAFA"/>
<path d="M75.9669 31.8345L80.3427 29.2818C80.6272 29.1148 80.8599 29.1912 80.8599 29.4528C80.8384 29.6131 80.7805 29.7663 80.6908 29.9002C80.6011 30.0342 80.482 30.1455 80.3427 30.2252L75.9669 32.7779C75.6825 32.9449 75.4518 32.8684 75.4518 32.6089C75.4727 32.4484 75.53 32.2949 75.6194 32.1605C75.7088 32.0261 75.8278 31.9145 75.9669 31.8345Z" fill="#FAFAFA"/>
<path d="M10.5668 68.647L20.2611 74.3076L29.9575 68.647L20.2611 62.9844L10.5668 68.647Z" fill="#839FFF"/>
<path opacity="0.7" d="M10.5668 68.647L20.2611 74.3076L29.9575 68.647L20.2611 62.9844L10.5668 68.647Z" fill="#FAFAFA"/>
<path d="M13.1306 70.1433C13.7079 70.1239 14.2729 69.9697 14.7815 69.6927C15.8257 69.0893 15.8257 68.0835 14.7815 67.48C14.3262 67.2291 13.8228 67.0802 13.3056 67.0435L10.5668 68.6467L13.1306 70.1433Z" fill="#839FFF"/>
<path d="M19.7738 69.0372C19.6445 68.8481 19.917 68.7878 20.3824 68.8984L25.0267 70.0088L21.4008 65.5089C21.2516 65.3238 21.4605 65.2816 21.8702 65.4164L27.7397 67.3475L29.9654 68.647L22.5126 72.9981L19.7738 69.0372Z" fill="#839FFF"/>
<g opacity="0.2">
<path d="M13.1306 70.1433C13.7079 70.1239 14.2729 69.9697 14.7815 69.6927C15.8257 69.0893 15.8257 68.0835 14.7815 67.48C14.3262 67.2291 13.8229 67.0802 13.3057 67.0435L10.5668 68.6467L13.1306 70.1433Z" fill="black"/>
<path d="M19.7738 69.0372C19.6445 68.8481 19.917 68.7878 20.3825 68.8984L25.0268 70.0088L21.4008 65.5089C21.2516 65.3238 21.4605 65.2816 21.8702 65.4164L27.7397 67.3475L29.9654 68.647L22.5127 72.9981L19.7738 69.0372Z" fill="black"/>
</g>
<path d="M20.2532 63.2177L29.5517 68.649L20.2532 74.0803L10.9566 68.649L20.2532 63.2177ZM20.2532 62.9863L10.5668 68.647L20.2532 74.3076L29.9495 68.647L20.2532 62.9863Z" fill="#839FFF"/>
<path opacity="0.7" d="M20.2532 63.2177L29.5517 68.649L20.2532 74.0803L10.9566 68.649L20.2532 63.2177ZM20.2532 62.9863L10.5668 68.647L20.2532 74.3076L29.9495 68.647L20.2532 62.9863Z" fill="#FAFAFA"/>
<path d="M10.5668 68.6465V69.5899L20.2611 75.2505V74.3071L10.5668 68.6465Z" fill="#839FFF"/>
<path opacity="0.6" d="M10.5668 68.6465V69.5899L20.2611 75.2505V74.3071L10.5668 68.6465Z" fill="#FAFAFA"/>
<path d="M29.9574 68.6465L20.261 74.3071V75.2505L29.9574 69.5899V68.6465Z" fill="#839FFF"/>
<path opacity="0.1" d="M29.9574 68.6465L20.261 74.3071V75.2505L29.9574 69.5899V68.6465Z" fill="#FAFAFA"/>
<path d="M85.7048 47.4331L76.0084 41.7725L66.3141 47.4331L76.0084 53.0937L85.7048 47.4331Z" fill="#263238"/>
<path d="M76.0084 41.7725L66.3141 47.4331V54.9806L76.0084 60.6432V41.7725Z" fill="#263238"/>
<path d="M68.7389 56.3964L67.1238 45.0752L76.8182 39.4146L78.4352 50.7358L68.7389 56.3964Z" fill="#839FFF"/>
<path opacity="0.7" d="M68.7389 56.3964L67.1238 45.0752L76.8182 39.4146L78.4352 50.7358L68.7389 56.3964Z" fill="#FAFAFA"/>
<path d="M67.1237 45.0753L66.1889 44.8701L67.7522 55.8212L68.7388 56.3966L67.1237 45.0753Z" fill="#839FFF"/>
<path opacity="0.1" d="M67.1237 45.0753L66.1889 44.8701L67.7522 55.8212L68.7388 56.3966L67.1237 45.0753Z" fill="#FAFAFA"/>
<path d="M75.8852 39.21L76.8181 39.4151L67.1237 45.0758L66.1889 44.8706L75.8852 39.21Z" fill="#839FFF"/>
<path opacity="0.6" d="M75.8852 39.21L76.8181 39.4151L67.1237 45.0758L66.1889 44.8706L75.8852 39.21Z" fill="#FAFAFA"/>
<path d="M70.0158 44.9909C69.9657 44.7543 69.8647 44.5319 69.72 44.3393C69.5753 44.1467 69.3904 43.9887 69.1785 43.8765L67.1238 45.0834L67.4301 47.2278C67.6249 47.328 67.8373 47.3879 68.0552 47.4042C68.2731 47.4204 68.492 47.3926 68.6991 47.3223C69.164 47.1659 69.5554 46.8415 69.7984 46.4113C70.0413 45.9811 70.1188 45.4753 70.0158 44.9909Z" fill="#839FFF"/>
<path opacity="0.2" d="M70.0158 44.9909C69.9657 44.7543 69.8647 44.5319 69.72 44.3393C69.5753 44.1467 69.3904 43.9887 69.1785 43.8765L67.1238 45.0834L67.4301 47.2278C67.6249 47.328 67.8373 47.3879 68.0552 47.4042C68.2731 47.4204 68.492 47.3926 68.6991 47.3223C69.164 47.1659 69.5554 46.8415 69.7984 46.4113C70.0413 45.9811 70.1188 45.4753 70.0158 44.9909Z" fill="black"/>
<path d="M72.2097 45.4648C72.2713 45.1369 72.4384 45.1147 72.5836 45.4145L74.0117 48.3755L75.1017 42.037C75.1573 41.7091 75.3284 41.6809 75.4835 41.9746L77.8127 46.378L78.4352 50.7331L70.3559 55.4543C70.34 55.3658 71.79 47.6815 72.2097 45.4648Z" fill="#839FFF"/>
<path opacity="0.2" d="M72.2097 45.4648C72.2713 45.1369 72.4384 45.1147 72.5836 45.4145L74.0117 48.3755L75.1017 42.037C75.1573 41.7091 75.3284 41.6809 75.4835 41.9746L77.8127 46.378L78.4352 50.7331L70.3559 55.4543C70.34 55.3658 71.79 47.6815 72.2097 45.4648Z" fill="black"/>
<path d="M76.663 39.7364L78.2184 50.6292L68.894 56.0746L67.3386 45.1818L76.663 39.7364ZM76.8182 39.4146L67.1238 45.0752L68.7389 56.3964L78.4352 50.7358L76.8182 39.4146Z" fill="#839FFF"/>
<path opacity="0.7" d="M76.663 39.7364L78.2184 50.6292L68.894 56.0746L67.3386 45.1818L76.663 39.7364ZM76.8182 39.4146L67.1238 45.0752L68.7389 56.3964L78.4352 50.7358L76.8182 39.4146Z" fill="#FAFAFA"/>
<path d="M71.9709 58.2836L70.3539 46.9624L80.0502 41.3018L81.6653 52.623L71.9709 58.2836Z" fill="#839FFF"/>
<path opacity="0.7" d="M71.9709 58.2836L70.3539 46.9624L80.0502 41.3018L81.6653 52.623L71.9709 58.2836Z" fill="#FAFAFA"/>
<path d="M70.3539 46.9635L69.4211 46.7583L70.9844 57.7094L71.971 58.2847L70.3539 46.9635Z" fill="#839FFF"/>
<path opacity="0.1" d="M70.3539 46.9635L69.4211 46.7583L70.9844 57.7094L71.971 58.2847L70.3539 46.9635Z" fill="#FAFAFA"/>
<path d="M79.1154 41.0972L80.0503 41.3023L70.3539 46.963L69.4211 46.7578L79.1154 41.0972Z" fill="#839FFF"/>
<path opacity="0.6" d="M79.1154 41.0972L80.0503 41.3023L70.3539 46.963L69.4211 46.7578L79.1154 41.0972Z" fill="#FAFAFA"/>
<path d="M73.2458 46.8777C73.1961 46.6407 73.0953 46.4178 72.9505 46.2248C72.8058 46.0318 72.6207 45.8735 72.4085 45.7612L70.3539 46.9682L70.6602 49.1125C70.8549 49.2127 71.0674 49.2727 71.2852 49.2889C71.5031 49.3052 71.722 49.2774 71.9291 49.2071C72.3936 49.0507 72.7847 48.7266 73.0276 48.2968C73.2705 47.8671 73.3482 47.3618 73.2458 46.8777Z" fill="#839FFF"/>
<path opacity="0.2" d="M73.2458 46.8777C73.1961 46.6407 73.0953 46.4178 72.9505 46.2248C72.8058 46.0318 72.6207 45.8735 72.4085 45.7612L70.3539 46.9682L70.6602 49.1125C70.8549 49.2127 71.0674 49.2727 71.2852 49.2889C71.5031 49.3052 71.722 49.2774 71.9291 49.2071C72.3936 49.0507 72.7847 48.7266 73.0276 48.2968C73.2705 47.8671 73.3482 47.3618 73.2458 46.8777Z" fill="black"/>
<path d="M75.4417 47.3511C75.5033 47.0232 75.6704 47.0011 75.8156 47.3008L77.2437 50.2639L78.3317 43.9273C78.3874 43.5974 78.5604 43.5713 78.7155 43.865L81.0447 48.2684L81.6652 52.6235L73.5859 57.3407C73.57 57.2521 75.022 49.5679 75.4417 47.3511Z" fill="#839FFF"/>
<path opacity="0.2" d="M75.4417 47.3511C75.5033 47.0232 75.6704 47.0011 75.8156 47.3008L77.2437 50.2639L78.3317 43.9273C78.3874 43.5974 78.5604 43.5713 78.7155 43.865L81.0447 48.2684L81.6652 52.6235L73.5859 57.3407C73.57 57.2521 75.022 49.5679 75.4417 47.3511Z" fill="black"/>
<path d="M79.895 41.6236L81.4504 52.5164L72.126 57.9618L70.5746 47.069L79.899 41.6236M80.0542 41.3018L70.3539 46.9664L71.9669 58.2836L81.6613 52.623L80.0462 41.3018H80.0542Z" fill="#839FFF"/>
<path opacity="0.7" d="M79.895 41.6236L81.4504 52.5164L72.126 57.9618L70.5746 47.069L79.899 41.6236M80.0542 41.3018L70.3539 46.9664L71.9669 58.2836L81.6613 52.623L80.0462 41.3018H80.0542Z" fill="#FAFAFA"/>
<path d="M76.0085 60.6428L85.7048 54.9821V47.4326L76.0085 53.0932V60.6428Z" fill="#37474F"/>
<path d="M76.0104 53.0932L66.3141 47.4326V54.9801L76.0104 60.6448V53.0932ZM71.8574 52.5562L70.4651 51.7515C70.3253 51.6719 70.2058 51.5605 70.1161 51.4261C70.0263 51.2916 69.9687 51.1379 69.948 50.977C69.948 50.7155 70.1787 50.6411 70.4651 50.8061L71.8574 51.6107C71.9969 51.6906 72.1161 51.8022 72.2058 51.9365C72.2956 52.0709 72.3533 52.2245 72.3745 52.3852C72.3745 52.6467 72.1418 52.7231 71.8574 52.5562Z" fill="#455A64"/>
<path d="M85.7061 47.4321L76.01 53.0938L78.4336 57.3392L88.1297 51.6776L85.7061 47.4321Z" fill="#455A64"/>
<path d="M66.3142 49.3195L65.5066 49.7922L66.3142 47.4326V49.3195Z" fill="#263238"/>
<path d="M31.652 12.3822L31.0274 12.6256V11.2315C31.0274 10.1272 30.1543 9.86163 29.2075 10.4148C28.2607 10.966 27.495 12.3117 27.495 13.4161V13.6173C27.3617 13.5756 27.2208 13.5652 27.0829 13.5868C26.9451 13.6084 26.8139 13.6615 26.6994 13.742C26.3397 13.9782 26.0404 14.297 25.8257 14.6725C25.6111 15.0479 25.4872 15.4694 25.4642 15.9024V15.995L24.593 16.5039C24.3561 16.6593 24.1589 16.8691 24.0176 17.1163C23.8762 17.3635 23.7946 17.641 23.7795 17.9261C23.7795 18.4511 24.1435 18.6624 24.593 18.4008L31.652 14.2791C31.8891 14.1235 32.0865 13.9134 32.2279 13.6658C32.3693 13.4183 32.4507 13.1404 32.4655 12.8549C32.4655 12.3339 32.1015 12.1206 31.652 12.3822Z" fill="#F0F0F0"/>
<path d="M45.5491 66.2635L45.5133 65.0465L46.5078 64.8735L46.5655 65.9115C46.6132 66.1529 46.7823 66.2314 46.826 66.3682C46.8698 66.5049 46.1458 67.897 45.74 68.2047C45.3343 68.5125 44.6739 68.1182 44.6103 67.9714C44.5466 67.8246 45.1533 67.9332 45.2527 67.7199C45.388 67.4343 45.5491 66.2635 45.5491 66.2635Z" fill="#FFA8A7"/>
<path d="M46.6551 66.1128C46.5238 66.2234 46.4244 66.503 46.2434 66.8852C46.0624 67.2674 45.8058 67.891 45.5254 67.9735C45.1992 68.0781 44.5587 67.889 44.9665 67.8568C45.056 67.8568 45.2131 67.8166 45.2549 67.7201C45.2709 67.6866 45.2836 67.6515 45.2927 67.6155C45.1515 67.6542 45.0048 67.6678 44.8591 67.6557C44.7508 67.6387 44.6401 67.6529 44.5394 67.6967C44.4388 67.7404 44.3525 67.812 44.2902 67.9031C44.2226 68.0057 44.332 68.1787 44.332 68.1787C44.4573 68.3336 44.69 68.4885 45.227 68.5287C45.764 68.569 46.0823 68.4905 46.2752 68.1264C46.5238 67.7195 46.7961 67.3278 47.0907 66.9536C47.2916 66.6418 46.9674 66.1953 46.6551 66.1128Z" fill="#263238"/>
<path d="M45.2867 67.6363C45.2549 67.7188 45.0182 67.7449 44.9009 67.761C44.7835 67.7771 44.7258 67.8878 44.9168 67.9501C45.247 67.9843 45.41 67.6303 45.2867 67.6363Z" fill="#FFA8A7"/>
<path d="M54.9791 62.3287L54.1517 61.4497L54.7842 60.645L55.5082 61.3833C55.7071 61.5321 55.8821 61.4778 56.0034 61.5502C56.1248 61.6227 56.4987 63.1595 56.4012 63.6544C56.3038 64.1492 55.5479 64.3041 55.4067 64.2357C55.2655 64.1673 55.7886 63.8435 55.723 63.6182C55.6255 63.3124 54.9791 62.3287 54.9791 62.3287Z" fill="#FFA8A7"/>
<path d="M55.707 61.4741C55.6812 61.6451 55.7886 61.9207 55.9059 62.3271C56.0233 62.7334 56.2361 63.3711 56.0829 63.6245C55.9079 63.9202 55.3052 64.2099 55.5897 63.9122C55.6513 63.8458 55.7468 63.711 55.715 63.6165C55.7049 63.5804 55.6916 63.5454 55.6752 63.5119C55.5939 63.6357 55.4924 63.7446 55.3748 63.8337C55.2826 63.893 55.2091 63.9777 55.1629 64.0779C55.1168 64.178 55.0999 64.2895 55.1143 64.399C55.1302 64.5217 55.3251 64.578 55.3251 64.578C55.524 64.6102 55.7965 64.568 56.2242 64.2401C56.6518 63.9122 56.8388 63.6366 56.7413 63.2343C56.6607 62.7631 56.6069 62.2875 56.5802 61.8101C56.5305 61.45 55.9934 61.3253 55.707 61.4741Z" fill="#263238"/>
<path d="M55.6831 63.5313C55.7129 63.6158 55.5518 63.7928 55.4742 63.8854C55.3967 63.9779 55.4265 64.0966 55.6115 64.0141C55.882 63.819 55.7706 63.4448 55.6831 63.5313Z" fill="#FFA8A7"/>
<path d="M48.2761 43.6909C48.5406 42.7615 48.3735 42.1963 48.1707 41.3916C47.7967 39.9192 47.4427 38.4406 47.4427 38.4406C47.4427 38.4406 47.1782 32.8323 47.1662 32.3214C47.1523 31.7179 47.0369 31.3799 46.9872 30.869C46.9594 30.5793 46.7545 30.5492 46.7744 30.5592V31.6937C46.591 31.5281 46.4176 31.3514 46.2553 31.1647C46.0683 30.9374 45.8793 30.9635 45.8197 31.0782C45.76 31.1929 46.0683 31.4161 46.2175 31.7119C46.3855 32.0073 46.5722 32.2915 46.7764 32.5628V35.6284L45.9808 36.0951L45.8256 39.024L47.0628 43.5803L48.2761 43.6909Z" fill="#FFA8A7"/>
<path d="M44.6661 41.7663L44.8371 43.2911L46.3229 43.4641L46.1081 41.4404L44.6661 41.7663Z" fill="#FFA8A7"/>
<path d="M37.078 29.9678V41.2891L46.7743 35.6284V24.3052L37.078 29.9678Z" fill="#839FFF"/>
<path opacity="0.7" d="M37.078 29.9678V41.2891L46.7743 35.6284V24.3052L37.078 29.9678Z" fill="#FAFAFA"/>
<path d="M37.078 32.9609C37.4062 33.0897 37.8298 33.0354 38.2913 32.7598C39.3355 32.1563 40.1828 30.6657 40.1828 29.4447C40.2072 29.0483 40.0764 28.6581 39.8188 28.3584L37.078 29.9677V32.9609Z" fill="#839FFF"/>
<path opacity="0.2" d="M37.078 32.9609C37.4062 33.0897 37.8298 33.0354 38.2913 32.7598C39.3355 32.1563 40.1828 30.6657 40.1828 29.4447C40.2072 29.0483 40.0764 28.6581 39.8188 28.3584L37.078 29.9677V32.9609Z" fill="black"/>
<path d="M41.3483 33.2411C41.4438 32.9213 41.6327 32.9092 41.77 33.211L43.1384 36.2283L45.1791 28.4213C45.2627 28.0995 45.4039 28.0975 45.4914 28.4213L46.7743 33.0299V35.6309L39.3215 39.982L41.3483 33.2411Z" fill="#839FFF"/>
<path opacity="0.2" d="M41.3483 33.2411C41.4438 32.9213 41.6327 32.9092 41.77 33.211L43.1384 36.2283L45.1791 28.4213C45.2627 28.0995 45.4039 28.0975 45.4914 28.4213L46.7743 33.0299V35.6309L39.3215 39.982L41.3483 33.2411Z" fill="black"/>
<path d="M46.5754 24.6552V35.5178L37.2769 40.9491V30.0865L46.5754 24.6552ZM46.7743 24.3052L37.078 29.9678V41.2891L46.7743 35.6284V24.3052Z" fill="#839FFF"/>
<path opacity="0.7" d="M46.5754 24.6552V35.5178L37.2769 40.9491V30.0865L46.5754 24.6552ZM46.7743 24.3052L37.078 29.9678V41.2891L46.7743 35.6284V24.3052Z" fill="#FAFAFA"/>
<path d="M37.0779 41.2891L36.2704 40.8184V29.4951L37.0779 29.9678V41.2891Z" fill="#839FFF"/>
<path opacity="0.1" d="M37.0779 41.2891L36.2704 40.8184V29.4951L37.0779 29.9678V41.2891Z" fill="#FAFAFA"/>
<path d="M36.2704 29.4951L45.9647 23.8345L46.7743 24.3052L37.0779 29.9678L36.2704 29.4951Z" fill="#839FFF"/>
<path opacity="0.6" d="M36.2704 29.4951L45.9647 23.8345L46.7743 24.3052L37.0779 29.9678L36.2704 29.4951Z" fill="#FAFAFA"/>
<path d="M48.276 43.6904C48.2502 43.8212 48.1905 44.0787 48.0771 44.5132C47.8583 45.3178 47.5282 46.4584 47.3869 46.8386C47.3869 46.8547 47.375 46.8687 47.369 46.8808L47.9558 47.8464C47.9558 47.8464 47.558 48.3392 46.3924 48.6832C45.2269 49.0272 43.8067 48.3292 43.8067 48.3292C43.8067 48.3292 43.5064 46.736 43.4507 46.2894C43.4507 46.2632 43.4507 46.223 43.4348 46.1767C43.4229 46.0822 43.4109 45.9977 43.393 45.9193C43.393 45.9193 43.393 45.9052 43.393 45.8971C43.3712 45.8006 43.3552 45.6718 43.3274 45.529C43.2957 45.2829 43.2069 45.0478 43.0683 44.8429C42.9297 44.6381 42.7452 44.4692 42.5298 44.3502C42.3647 44.2597 38.9377 42.8878 38.3967 42.5539C38.2584 42.4816 38.1375 42.3795 38.0426 42.2547C37.9477 42.1299 37.8812 41.9854 37.8477 41.8317C37.7721 41.6205 36.7299 38.1404 36.6066 37.7944C36.5022 37.506 36.327 37.2492 36.0974 37.0481C35.8269 36.7544 35.7314 36.6881 35.6479 36.4245C35.5644 36.161 35.6698 36.0966 35.7115 35.9659C35.7692 35.7848 35.7115 35.6581 35.7434 35.5213C35.7931 35.3503 35.8965 35.3061 35.9224 35.2296C35.9352 35.0939 35.9585 34.9594 35.992 34.8273C36.0462 34.7001 36.1435 34.5967 36.2665 34.5356V34.938C36.4156 35.5555 37.0859 35.8593 37.1715 35.815C37.257 35.7708 37.3823 35.4127 37.5693 35.2638C37.7562 35.115 38.0148 35.1291 37.9193 35.3161C37.8656 35.4248 37.7423 35.8291 37.6787 36.0081C37.615 36.1872 37.4261 36.5633 37.4678 36.851C37.5215 37.2352 39.2878 41.196 39.2878 41.196C39.2878 41.196 41.2071 41.8317 42.7307 42.3105C43.6755 42.6082 44.4532 42.7912 44.4532 42.7912L44.9246 42.7067L45.1016 42.6746L47.3969 42.2481L47.4804 42.232C47.5557 42.222 47.6319 42.222 47.7072 42.232C47.8125 42.2634 47.9102 42.3169 47.9938 42.389C48.0774 42.4611 48.1451 42.5502 48.1925 42.6504C48.3406 42.9763 48.3701 43.3446 48.276 43.6904Z" fill="#FFA8A7"/>
<path d="M44.9507 49.1403C44.9507 49.1403 47.8387 56.2734 48.1012 56.9252C48.267 57.4015 48.593 57.8037 49.0222 58.0617C49.408 58.3333 54.4382 61.8355 54.4382 61.8355C55.2079 61.5116 55.2238 61.0047 55.2238 61.0047C55.2238 61.0047 52.6262 57.6554 52.0772 57.1726C51.5283 56.6898 50.5119 56.4444 50.5119 56.4444L49.233 51.0131C49.0619 50.1803 49.1673 49.259 47.9421 47.8408L44.9507 49.1403Z" fill="#37474F"/>
<path d="M45.8535 48.7422C46.4502 49.579 46.9972 50.3153 47.1523 51.2788C47.4785 53.3166 46.6889 55.8029 46.5934 57.3237C46.88 57.7826 47.0546 58.3038 47.1026 58.8444C47.1304 59.4701 46.5854 65.2293 46.5854 65.2293C46.2486 65.4173 45.86 65.488 45.4796 65.4304C45.4796 65.4304 44.2663 57.1084 44.0336 54.4028C43.8008 51.6973 43.7949 48.3379 43.7949 48.3379L45.8535 48.7422Z" fill="#37474F"/>
<path d="M43.7073 39.4985C43.63 39.2838 43.6077 39.0527 43.6424 38.8269C43.6772 38.6011 43.768 38.3879 43.9062 38.2071C44.4731 37.4326 45.5511 37.1027 46.6908 37.503C47.2577 37.7042 47.9498 38.3559 47.9319 39.7701C47.92 40.6371 45.4974 41.1038 45.5093 41.6992L43.7073 39.4985Z" fill="#263238"/>
<path d="M43.6337 39.8228C43.6337 39.8228 43.2737 40.3236 43.3155 40.382C43.3918 40.4377 43.4773 40.4792 43.5681 40.5047L43.6337 39.8228Z" fill="#F28F8F"/>
<path d="M44.7376 38.232C44.4015 38.3889 43.8207 38.6806 43.6198 39.8976C43.4209 41.1489 43.6198 41.5592 43.7769 41.7322C43.8863 41.8489 44.5029 41.8771 44.8132 41.7946C45.211 41.69 46.0862 41.3923 46.5058 40.7546C46.9991 40.0123 47.1383 39.0005 46.6252 38.578C46.3649 38.3641 46.0554 38.2202 45.7254 38.1597C45.3954 38.0992 45.0556 38.1241 44.7376 38.232Z" fill="#FFA8A7"/>
<path d="M43.7949 48.332L47.9499 47.8472C48.2423 48.332 48.9444 49.1607 48.7952 49.9573C48.6142 50.9209 48.101 51.5988 46.5317 52.0715" fill="#37474F"/>
<path d="M47.9002 45.1317C47.6894 45.9223 47.5163 46.4795 47.3831 46.8395C47.3831 46.8556 47.3711 46.8697 47.3652 46.8818L47.9519 47.8474C47.9519 47.8474 47.5541 48.3402 46.3886 48.6842C45.223 49.0282 43.8029 48.3301 43.8029 48.3301C43.8029 48.3301 43.5026 46.737 43.4469 46.2904C43.4469 46.2642 43.4469 46.224 43.431 46.1777C43.415 46.1315 43.4051 46.0128 43.3892 45.9202C43.3892 45.9202 43.3892 45.9062 43.3892 45.8981C43.3633 45.7392 43.3355 45.5843 43.3235 45.53C44.8213 44.8541 44.4692 42.7862 44.4692 42.7862L44.9406 42.7017L45.1176 42.6695C45.8038 42.5468 46.2931 42.4543 46.9077 42.3316C46.9316 42.3255 48.2423 43.8443 47.9002 45.1317Z" fill="#FAFAFA"/>
<path d="M47.5025 46.4727C47.0261 46.7808 46.5236 47.0453 46.0008 47.2632C46.4794 47.2531 46.9478 47.1217 47.3632 46.881L47.5025 46.4727Z" fill="#F0F0F0"/>
<path d="M44.6382 38.2798C44.6382 38.2798 44.302 39.4123 44.6123 40.1526C44.6123 40.1526 44.8331 39.7141 45.209 39.8609C45.5849 40.0078 45.5292 40.5207 45.209 40.7702C45.1291 40.8422 45.0306 40.8899 44.925 40.9077C44.8194 40.9255 44.711 40.9127 44.6123 40.8707C44.6287 41.2383 44.7611 41.5908 44.9902 41.8765C45.3839 42.0122 45.8075 42.0326 46.2122 41.9355C46.6168 41.8383 46.9862 41.6275 47.2776 41.3274C48.2382 40.3759 48.1985 38.5916 46.8639 38.0746C45.5292 37.5576 44.6382 38.2798 44.6382 38.2798Z" fill="#263238"/>
<path d="M47.0548 54.3406L47.3949 51.5747C47.3949 51.5747 48.3894 51.1925 48.8171 50.6011C48.6248 51.114 48.2766 51.5521 47.8226 51.8523C47.7549 51.9388 47.2259 54.7751 47.2259 54.7751L47.0548 54.3406Z" fill="#263238"/>
<path d="M48.5626 39.4166C48.1011 39.6178 47.7531 39.2476 47.5005 38.6562C47.2479 38.0648 47.1922 37.4734 47.6516 37.2723C48.1111 37.0711 48.666 37.4493 48.9166 38.0407C49.1672 38.6321 49.022 39.2155 48.5626 39.4166Z" fill="#263238"/>
<path d="M46.7743 31.6941C46.6378 31.6142 46.5209 31.5042 46.4322 31.3723C46.293 31.1711 46.0941 31.0745 45.9748 31.1429C45.8873 31.1912 45.9907 31.3441 46.0563 31.4708C46.153 31.7165 46.2873 31.9452 46.4541 32.1487C46.6391 32.3217 46.7724 32.364 46.7724 32.5631C46.8739 32.4469 46.9273 32.2957 46.9215 32.1407C46.9197 31.9799 46.8683 31.8238 46.7743 31.6941Z" fill="#FFA8A7"/>
</svg>
