<svg width="24" height="24" viewBox="0 0 24 24" fill="none" xmlns="http://www.w3.org/2000/svg">
<path d="M20.04 6.82213L14.28 2.79214C12.71 1.69214 10.3 1.75213 8.78999 2.92213L3.77999 6.83213C2.77999 7.61213 1.98999 9.21214 1.98999 10.4721V17.3721C1.98999 19.9221 4.05999 22.0021 6.60999 22.0021H17.39C19.94 22.0021 22.01 19.9321 22.01 17.3821V10.6021C22.01 9.25214 21.14 7.59213 20.04 6.82213ZM12.75 18.0021C12.75 18.4121 12.41 18.7521 12 18.7521C11.59 18.7521 11.25 18.4121 11.25 18.0021V15.0021C11.25 14.5921 11.59 14.2521 12 14.2521C12.41 14.2521 12.75 14.5921 12.75 15.0021V18.0021Z" fill="#17345F"/>
</svg>
