<svg width="26" height="21" viewBox="0 0 26 21" fill="none" xmlns="http://www.w3.org/2000/svg">
<path d="M16.4169 0.915249C16.1499 0.915249 15.8828 1.01365 15.6719 1.2245C15.2643 1.63214 15.2643 2.30686 15.6719 2.7145L23.4593 10.5019L15.6719 18.2892C15.2643 18.6969 15.2643 19.3716 15.6719 19.7792C16.0796 20.1869 16.7543 20.1869 17.1619 19.7792L25.6943 11.2469C26.102 10.8392 26.102 10.1645 25.6943 9.75687L17.1619 1.2245C16.9511 1.01365 16.684 0.915249 16.4169 0.915249Z" fill="#F47624"/>
<path d="M24.7116 9.44766H1.05425C0.477926 9.44766 0 9.92558 0 10.5019C0 11.0782 0.477926 11.5562 1.05425 11.5562H24.7116C25.2879 11.5562 25.7658 11.0782 25.7658 10.5019C25.7658 9.92558 25.2879 9.44766 24.7116 9.44766Z" fill="#F47624"/>
</svg>
