<svg width="24" height="25" viewBox="0 0 24 25" fill="none" xmlns="http://www.w3.org/2000/svg">
<g clip-path="url(#clip0_270_17678)">
<path d="M18 8.33317H17V6.24984C17 3.37484 14.76 1.0415 12 1.0415C9.24 1.0415 7 3.37484 7 6.24984V8.33317H6C4.9 8.33317 4 9.27067 4 10.4165V20.8332C4 21.979 4.9 22.9165 6 22.9165H18C19.1 22.9165 20 21.979 20 20.8332V10.4165C20 9.27067 19.1 8.33317 18 8.33317ZM12 17.7082C10.9 17.7082 10 16.7707 10 15.6248C10 14.479 10.9 13.5415 12 13.5415C13.1 13.5415 14 14.479 14 15.6248C14 16.7707 13.1 17.7082 12 17.7082ZM15.1 8.33317H8.9V6.24984C8.9 4.46859 10.29 3.02067 12 3.02067C13.71 3.02067 15.1 4.46859 15.1 6.24984V8.33317Z" fill="#344054"/>
</g>
<defs>
<clipPath id="clip0_270_17678">
<rect width="24" height="25" fill="white"/>
</clipPath>
</defs>
</svg>
