<svg width="24" height="24" viewBox="0 0 24 24" fill="none" xmlns="http://www.w3.org/2000/svg">
<path d="M14.9998 22.7492H8.99984C7.67984 22.7492 6.57984 22.6192 5.64984 22.3392C5.48538 22.2886 5.34272 22.1842 5.24478 22.0427C5.14684 21.9013 5.09931 21.731 5.10984 21.5592C5.35984 18.5692 8.38984 16.2192 11.9998 16.2192C15.6098 16.2192 18.6298 18.5592 18.8898 21.5592C18.9198 21.9192 18.6998 22.2392 18.3498 22.3392C17.4198 22.6192 16.3198 22.7492 14.9998 22.7492ZM6.71984 21.0592C7.37984 21.1892 8.12984 21.2492 8.99984 21.2492H14.9998C15.8698 21.2492 16.6198 21.1892 17.2798 21.0592C16.7498 19.1392 14.5598 17.7192 11.9998 17.7192C9.43984 17.7192 7.24984 19.1392 6.71984 21.0592Z" fill="#17345F"/>
<path d="M15 2H9C4 2 2 4 2 9V15C2 18.78 3.14 20.85 5.86 21.62C6.08 19.02 8.75 16.97 12 16.97C15.25 16.97 17.92 19.02 18.14 21.62C20.86 20.85 22 18.78 22 15V9C22 4 20 2 15 2ZM12 14.17C10.02 14.17 8.42 12.56 8.42 10.58C8.42 8.6 10.02 7 12 7C13.98 7 15.58 8.6 15.58 10.58C15.58 12.56 13.98 14.17 12 14.17Z" stroke="#17345F" stroke-width="1.5" stroke-linecap="round" stroke-linejoin="round"/>
<path d="M12.0019 14.92C10.8526 14.9174 9.75124 14.4589 8.93949 13.6453C8.12775 12.8317 7.67187 11.7293 7.67188 10.58C7.67188 8.19 9.61187 6.25 12.0019 6.25C14.3919 6.25 16.3319 8.19 16.3319 10.58C16.3319 11.7293 15.876 12.8317 15.0643 13.6453C14.2525 14.4589 13.1512 14.9174 12.0019 14.92ZM12.0019 7.75C11.263 7.76963 10.561 8.07692 10.0454 8.60645C9.52973 9.13597 9.24118 9.84589 9.24118 10.585C9.24118 11.3241 9.52973 12.034 10.0454 12.5636C10.561 13.0931 11.263 13.4004 12.0019 13.42C12.7407 13.4004 13.4427 13.0931 13.9584 12.5636C14.474 12.034 14.7626 11.3241 14.7626 10.585C14.7626 9.84589 14.474 9.13597 13.9584 8.60645C13.4427 8.07692 12.7407 7.76963 12.0019 7.75Z" fill="#17345F"/>
</svg>
