<svg width="51" height="50" viewBox="0 0 51 50" fill="none" xmlns="http://www.w3.org/2000/svg">
<path d="M29.5692 4.46603L33.8276 12.9829C34.4083 14.1685 35.9569 15.3057 37.2634 15.5235L44.9818 16.8058C49.9178 17.6285 51.0791 21.2094 47.5224 24.742L41.5219 30.7425C40.5056 31.7587 39.9491 33.7186 40.2637 35.1219L41.9816 42.55C43.3365 48.4295 40.2153 50.7039 35.0132 47.6311L27.7787 43.3484C26.4722 42.5742 24.3187 42.5742 22.988 43.3484L15.7534 47.6311C10.5755 50.7039 7.43009 48.4053 8.78504 42.55L10.5029 35.1219C10.8175 33.7186 10.261 31.7587 9.24476 30.7425L3.24423 24.742C-0.288333 21.2094 0.848863 17.6285 5.78478 16.8058L13.5032 15.5235C14.7856 15.3057 16.3341 14.1685 16.9148 12.9829L21.1733 4.46603C23.4961 -0.155343 27.2706 -0.155343 29.5692 4.46603Z" fill="#F47624" stroke="#292D32" stroke-opacity="0.5" stroke-linecap="round" stroke-linejoin="round"/>
</svg>
