<svg width="50" height="50" viewBox="0 0 50 50" fill="none" xmlns="http://www.w3.org/2000/svg">
<path d="M28.9659 4.46603L33.2244 12.9829C33.8051 14.1685 35.3536 15.3057 36.6601 15.5235L44.3786 16.8058C49.3145 17.6285 50.4759 21.2094 46.9191 24.742L40.9186 30.7425C39.9024 31.7587 39.3459 33.7186 39.6604 35.1219L41.3783 42.55C42.7333 48.4295 39.612 50.7039 34.41 47.6311L27.1754 43.3484C25.8689 42.5742 23.7155 42.5742 22.3847 43.3484L15.1501 47.6311C9.97225 50.7039 6.82681 48.4053 8.18177 42.55L9.89966 35.1219C10.2142 33.7186 9.65771 31.7587 8.64149 30.7425L2.64096 24.742C-0.891605 21.2094 0.245592 17.6285 5.18151 16.8058L12.8999 15.5235C14.1823 15.3057 15.7308 14.1685 16.3115 12.9829L20.57 4.46603C22.8928 -0.155343 26.6673 -0.155343 28.9659 4.46603Z" stroke="#292D32" stroke-opacity="0.5" stroke-linecap="round" stroke-linejoin="round"/>
</svg>
