<svg width="24" height="24" viewBox="0 0 24 24" fill="none" xmlns="http://www.w3.org/2000/svg">
<path d="M16.3799 22.7502H3.23994C2.28994 22.7502 1.40994 22.3102 0.839938 21.5402C0.259938 20.7602 0.0899382 19.7802 0.379938 18.8502L4.58994 5.3202C4.77532 4.70628 5.15367 4.16847 5.66886 3.78658C6.18406 3.40469 6.80864 3.19906 7.44994 3.2002H19.7499C20.9599 3.2002 22.0499 3.9202 22.5099 5.0402C22.7599 5.6202 22.8099 6.2802 22.6599 6.9302L19.2899 20.4602C19.1349 21.1145 18.7629 21.6971 18.2345 22.1129C17.7061 22.5288 17.0524 22.7534 16.3799 22.7502ZM7.45994 4.7102C7.13964 4.71106 6.82803 4.81442 6.57071 5.00516C6.3134 5.19589 6.12389 5.46399 6.02994 5.7702L1.81994 19.3002C1.67994 19.7702 1.75994 20.2602 2.05994 20.6602C2.33994 21.0402 2.77994 21.2602 3.24994 21.2602H16.3899C17.0799 21.2602 17.6799 20.7902 17.8399 20.1202L21.2099 6.5802C21.2899 6.2502 21.2699 5.9202 21.1399 5.6302C20.8999 5.0602 20.3699 4.7002 19.7599 4.7002H7.45994V4.7102Z" fill="#17345F"/>
<path d="M20.7802 22.7502H16.0002C15.5902 22.7502 15.2502 22.4102 15.2502 22.0002C15.2502 21.5902 15.5902 21.2502 16.0002 21.2502H20.7802C21.1902 21.2502 21.5702 21.0812 21.8502 20.7812C22.1302 20.4812 22.2702 20.0812 22.2402 19.6712L21.2502 6.05123C21.2202 5.64123 21.5302 5.28123 21.9402 5.25123C22.3502 5.23123 22.7102 5.53123 22.7402 5.94123L23.7302 19.5612C23.7902 20.3812 23.5002 21.2012 22.9402 21.8012C22.3902 22.4112 21.6002 22.7502 20.7802 22.7502ZM9.6802 7.13023C9.6202 7.13023 9.5602 7.12023 9.5002 7.11023C9.4042 7.08681 9.31379 7.04466 9.23414 6.98619C9.15449 6.92773 9.08717 6.8541 9.03606 6.76954C8.98496 6.68498 8.95106 6.59115 8.93632 6.49345C8.92159 6.39575 8.9263 6.2961 8.9502 6.20023L9.9902 1.88023C10.0379 1.68662 10.1606 1.5199 10.3313 1.41676C10.4158 1.36569 10.5095 1.33176 10.6071 1.31691C10.7047 1.30206 10.8043 1.30659 10.9002 1.33023C10.9961 1.35386 11.0863 1.39615 11.1659 1.45468C11.2454 1.5132 11.3126 1.58682 11.3637 1.67132C11.4147 1.75582 11.4487 1.84955 11.4635 1.94717C11.4784 2.04478 11.4738 2.14436 11.4502 2.24023L10.4102 6.56023C10.3302 6.90023 10.0202 7.13023 9.6802 7.13023ZM16.3802 7.14223C16.3302 7.14223 16.2702 7.14223 16.2202 7.12223C16.0271 7.07787 15.8587 6.96032 15.7505 6.79431C15.6423 6.62831 15.6028 6.42681 15.6402 6.23223L16.5802 1.89223C16.6702 1.48223 17.0702 1.23223 17.4702 1.31223C17.8702 1.39223 18.1302 1.80223 18.0502 2.20223L17.1102 6.54223C17.0402 6.90223 16.7302 7.14223 16.3802 7.14223ZM15.7002 12.7502H7.7002C7.2902 12.7502 6.9502 12.4102 6.9502 12.0002C6.9502 11.5902 7.2902 11.2502 7.7002 11.2502H15.7002C16.1102 11.2502 16.4502 11.5902 16.4502 12.0002C16.4502 12.4102 16.1102 12.7502 15.7002 12.7502ZM14.7002 16.7502H6.7002C6.2902 16.7502 5.9502 16.4102 5.9502 16.0002C5.9502 15.5902 6.2902 15.2502 6.7002 15.2502H14.7002C15.1102 15.2502 15.4502 15.5902 15.4502 16.0002C15.4502 16.4102 15.1102 16.7502 14.7002 16.7502Z" fill="#17345F"/>
</svg>
