<svg width="14" height="14" viewBox="0 0 14 14" fill="none" xmlns="http://www.w3.org/2000/svg">
<path d="M12.0068 2.89998L8.04678 0.613313C7.40011 0.23998 6.60011 0.23998 5.94678 0.613313L1.99345 2.89998C1.67463 3.08483 1.41007 3.35032 1.22635 3.66979C1.04262 3.98926 0.946205 4.35145 0.94678 4.71998V9.27998C0.94678 10.0266 1.34678 10.72 1.99345 11.1L5.95345 13.3866C6.60011 13.76 7.40011 13.76 8.05345 13.3866L12.0134 11.1C12.3323 10.9151 12.5968 10.6496 12.7805 10.3302C12.9643 10.0107 13.0607 9.64851 13.0601 9.27998V4.71998C13.0572 4.35137 12.9586 3.98983 12.774 3.67078C12.5893 3.35174 12.325 3.08613 12.0068 2.89998ZM6.50011 4.16665C6.50011 3.89331 6.72678 3.66665 7.00011 3.66665C7.27345 3.66665 7.50011 3.89331 7.50011 4.16665V7.66665C7.50011 7.93998 7.27345 8.16665 7.00011 8.16665C6.72678 8.16665 6.50011 7.93998 6.50011 7.66665V4.16665ZM7.61345 10.0866C7.58011 10.1666 7.53345 10.24 7.47345 10.3066C7.38018 10.3999 7.26111 10.4631 7.13158 10.4881C7.00206 10.513 6.86803 10.4986 6.74678 10.4466C6.66011 10.4133 6.59345 10.3666 6.52678 10.3066C6.46678 10.24 6.42011 10.1666 6.38011 10.0866C6.348 10.0061 6.33214 9.92001 6.33345 9.83331C6.33345 9.65998 6.40011 9.48665 6.52678 9.35998C6.59345 9.29998 6.66011 9.25331 6.74678 9.21998C6.99345 9.11331 7.28678 9.17331 7.47345 9.35998C7.53345 9.42665 7.58011 9.49331 7.61345 9.57998C7.64678 9.65998 7.66678 9.74665 7.66678 9.83331C7.66678 9.91998 7.64678 10.0066 7.61345 10.0866Z" fill="#FF0000"/>
</svg>
