<svg width="4" height="16" viewBox="0 0 4 16" fill="none" xmlns="http://www.w3.org/2000/svg">
<path d="M4.00011 13.7692C4.00011 14.2283 3.81776 14.6685 3.49318 14.9931C3.1686 15.3177 2.72837 15.5 2.26934 15.5C1.81031 15.5 1.37009 15.3177 1.0455 14.9931C0.720922 14.6685 0.538574 14.2283 0.538574 13.7692C0.538574 13.3102 0.720922 12.87 1.0455 12.5454C1.37009 12.2208 1.81031 12.0385 2.26934 12.0385C2.72837 12.0385 3.1686 12.2208 3.49318 12.5454C3.81776 12.87 4.00011 13.3102 4.00011 13.7692ZM4.00011 8C4.00011 8.45903 3.81776 8.89926 3.49318 9.22384C3.1686 9.54842 2.72837 9.73077 2.26934 9.73077C1.81031 9.73077 1.37009 9.54842 1.0455 9.22384C0.720922 8.89926 0.538574 8.45903 0.538574 8C0.538574 7.54097 0.720922 7.10074 1.0455 6.77616C1.37009 6.45158 1.81031 6.26923 2.26934 6.26923C2.72837 6.26923 3.1686 6.45158 3.49318 6.77616C3.81776 7.10074 4.00011 7.54097 4.00011 8ZM4.00011 2.23077C4.00011 2.6898 3.81776 3.13003 3.49318 3.45461C3.1686 3.77919 2.72837 3.96154 2.26934 3.96154C1.81031 3.96154 1.37009 3.77919 1.0455 3.45461C0.720922 3.13003 0.538574 2.6898 0.538574 2.23077C0.538574 1.77174 0.720922 1.33151 1.0455 1.00693C1.37009 0.682348 1.81031 0.5 2.26934 0.5C2.72837 0.5 3.1686 0.682348 3.49318 1.00693C3.81776 1.33151 4.00011 1.77174 4.00011 2.23077Z" fill="#5F6268"/>
</svg>
