<svg width="18" height="17" viewBox="0 0 18 17" fill="none" xmlns="http://www.w3.org/2000/svg">
<path d="M10.0371 11.44L12.7571 8.72L13.8901 9.697L13.8171 9.782L9.8161 13.782C9.68899 13.9089 9.52057 13.9859 9.34146 13.9991C9.16236 14.0123 8.98446 13.9608 8.8401 13.854L8.7561 13.782L4.7561 9.78L5.7321 8.647L5.8171 8.72L8.5371 11.442V6.75H10.0371V11.44Z" fill="#616266" stroke="#5F6267" stroke-width="0.5" stroke-linecap="square" stroke-linejoin="bevel"/>
<path d="M3.60802 3C2.79395 3 2.01323 3.26632 1.43759 3.74037C0.861961 4.21442 0.538574 4.85737 0.538574 5.52778V14.4722C0.538574 15.1426 0.861961 15.7856 1.43759 16.2596C2.01323 16.7337 2.79395 17 3.60802 17H14.4691C15.2832 17 16.0639 16.7337 16.6396 16.2596C17.2152 15.7856 17.5386 15.1426 17.5386 14.4722V5.52778C17.5386 4.85737 17.2152 4.21442 16.6396 3.74037C16.0639 3.26632 15.2832 3 14.4691 3H3.60802ZM1.95524 5.52778C1.95524 4.77644 2.69569 4.16667 3.60802 4.16667H14.4691C15.3815 4.16667 16.1219 4.77644 16.1219 5.52778V14.4722C16.1219 14.8332 15.9478 15.1794 15.6378 15.4347C15.3279 15.6899 14.9075 15.8333 14.4691 15.8333H3.60802C3.16967 15.8333 2.74928 15.6899 2.43933 15.4347C2.12937 15.1794 1.95524 14.8332 1.95524 14.4722V5.52778Z" fill="#5F6267"/>
<path d="M2.94482 1L1.53857 4H16.5386L15.6011 1H2.94482Z" stroke="#5F6267" stroke-width="1.5" stroke-linecap="square" stroke-linejoin="round"/>
</svg>
