<svg width="18" height="15" viewBox="0 0 18 15" fill="none" xmlns="http://www.w3.org/2000/svg">
<path fill-rule="evenodd" clip-rule="evenodd" d="M0.81681 6.82519C0.763902 6.76946 0.721926 6.70325 0.693286 6.63036C0.664645 6.55747 0.649902 6.47933 0.649902 6.40042C0.649902 6.3215 0.664645 6.24336 0.693286 6.17047C0.721926 6.09758 0.763902 6.03138 0.81681 5.97564L5.36178 1.17595C5.46846 1.06329 5.61315 1 5.76402 1C5.91488 1 6.05957 1.06329 6.16625 1.17595C6.27292 1.2886 6.33286 1.4414 6.33286 1.60072C6.33286 1.76004 6.27292 1.91284 6.16625 2.02549L2.59049 5.80046H13.7177C14.4711 5.80046 15.1936 6.11651 15.7263 6.67908C16.2591 7.24165 16.5583 8.00467 16.5583 8.80027V13.4C16.5583 13.5592 16.4985 13.7118 16.3919 13.8243C16.2854 13.9368 16.1409 14 15.9902 14C15.8395 14 15.695 13.9368 15.5885 13.8243C15.4819 13.7118 15.4221 13.5592 15.4221 13.4V8.80027C15.4221 8.32291 15.2425 7.8651 14.9229 7.52755C14.6033 7.19001 14.1697 7.00038 13.7177 7.00038H2.59049L6.16625 10.7753C6.21907 10.8311 6.26097 10.8973 6.28956 10.9702C6.31814 11.0431 6.33286 11.1212 6.33286 11.2001C6.33286 11.279 6.31814 11.3571 6.28956 11.43C6.26097 11.5029 6.21907 11.5691 6.16625 11.6249C6.11342 11.6807 6.05072 11.7249 5.9817 11.7551C5.91269 11.7853 5.83872 11.8008 5.76402 11.8008C5.68931 11.8008 5.61534 11.7853 5.54633 11.7551C5.47731 11.7249 5.41461 11.6807 5.36178 11.6249L0.81681 6.82519Z" fill="#5F6267" stroke="#5F6266"/>
</svg>
