<svg width="16" height="20" viewBox="0 0 16 20" fill="none" xmlns="http://www.w3.org/2000/svg">
<path d="M6.53857 1C6.14707 1 5.74357 1.13875 5.46007 1.42225C5.17732 1.705 5.03857 2.1085 5.03857 2.5V3.25H0.538574V4.75H1.28857V16.75C1.28857 17.9837 2.30482 19 3.53857 19H12.5386C13.7723 19 14.7886 17.9837 14.7886 16.75V4.75H15.5386V3.25H11.0386V2.5C11.0386 2.1085 10.8998 1.705 10.6163 1.4215C10.3336 1.1395 9.93082 1 9.53857 1H6.53857ZM6.53857 2.5H9.53857V3.25H6.53857V2.5ZM2.78857 4.75H13.2886V16.75C13.2886 17.1663 12.9548 17.5 12.5386 17.5H3.53857C3.12232 17.5 2.78857 17.1663 2.78857 16.75V4.75ZM4.28857 7V15.25H5.78857V7H4.28857ZM7.28857 7V15.25H8.78857V7H7.28857ZM10.2886 7V15.25H11.7886V7H10.2886Z" fill="#5F6267" stroke="#5E6267" stroke-width="0.25"/>
</svg>
